<svg width="136" height="136" viewBox="0 0 136 136" fill="none" xmlns="http://www.w3.org/2000/svg">
<g clip-path="url(#clip0_98_809)">
<path fill-rule="evenodd" clip-rule="evenodd" d="M120 82.1734C120 62.7477 96.7185 47 68 47C39.2815 47 16 62.7477 16 82.1734C16 99.485 34.5023 113.842 58.8484 116.771V127.994L76.5885 127.987V116.83C80.7905 116.369 84.944 115.534 89.0009 114.337L96.2026 128L116.25 127.991L104.168 107.415C113.918 101.022 120 92.085 120 82.1734ZM36.4349 84.7994C36.4349 71.5193 54.1312 60.7527 75.9601 60.7527C97.7889 60.7527 113.897 68.1164 113.897 84.7994C113.944 88.9132 112.766 92.9463 110.515 96.3753C108.265 99.8043 105.045 102.471 101.275 104.028C100.918 103.79 100.549 103.571 100.169 103.372C98.5547 102.627 96.8918 101.994 95.1919 101.479C95.1919 101.479 110.696 100.316 110.696 84.7251C110.696 69.1345 94.471 68.8404 94.471 68.8404H58.8484V106.45C45.6029 102.565 36.4349 94.3445 36.4349 84.7994ZM87.4773 91.7215L76.7327 91.7252L76.7379 81.6669L87.4773 81.6725C88.1357 81.6221 88.7972 81.7143 89.4174 81.943C90.0376 82.1718 90.6023 82.5317 91.0736 82.9988C91.5449 83.4659 91.9119 84.0293 92.15 84.6513C92.3882 85.2733 92.492 85.9395 92.4545 86.6053C92.4747 87.2751 92.3605 87.9421 92.1187 88.5662C91.8769 89.1902 91.5124 89.7583 91.0474 90.2363C90.5823 90.7142 90.0262 91.0921 89.4127 91.3472C88.7991 91.6022 88.1408 91.7303 87.4773 91.7215ZM76.5848 104.831H81.3484C81.7981 104.838 82.2416 104.938 82.651 105.126C83.0605 105.314 83.4271 105.585 83.7278 105.923C84.4532 106.629 85.0894 107.423 85.6221 108.286C82.6223 108.634 79.606 108.816 76.5867 108.832L76.5848 104.831Z" fill="white"/>
</g>
<defs>
<clipPath id="clip0_98_809">
<rect width="136" height="136" fill="white"/>
</clipPath>
</defs>
</svg>
