<svg width="136" height="136" viewBox="0 0 136 136" fill="none" xmlns="http://www.w3.org/2000/svg">
<path d="M39.0714 47H96.9286C103.293 47 108.5 52.2071 108.5 58.5714V116.429C108.5 122.793 103.293 128 96.9286 128H39.0714C32.7071 128 27.5 122.793 27.5 116.429V58.5714C27.5 52.2071 32.7071 47 39.0714 47Z" fill="white"/>
<path d="M96.5 110.2L82.3607 116L58.9876 92.8L44.2711 104.4L38.5 101.5V72.5L44.2711 69.6L58.9876 81.2L82.0721 58L96.5 63.8V110.2ZM66.7786 87L82.0721 98.89V74.82L66.7786 87ZM44.2711 95.99L53.2164 87L44.5597 78.01L44.2711 95.99Z" fill="#112448"/>
</svg>
