<svg width="136" height="136" viewBox="0 0 136 136" fill="none" xmlns="http://www.w3.org/2000/svg">
<path opacity="0.5" d="M68.2656 100.395C73.6935 100.395 78.0938 95.9948 78.0938 90.5669C78.0938 85.139 73.6935 80.7388 68.2656 80.7388C62.8377 80.7388 58.4375 85.139 58.4375 90.5669C58.4375 95.9948 62.8377 100.395 68.2656 100.395Z" fill="white"/>
<path fill-rule="evenodd" clip-rule="evenodd" d="M47.4241 53.5508L68.6439 41L88.8744 53.4185L89.0035 77.066L78.9597 83.4787C78.9597 83.4787 73.0522 77.8921 67.6786 77.8911C62.3039 77.89 57.4786 83.4745 57.4786 83.4745L48.0064 77.0942L47.4241 53.5508ZM49.8891 74.9394L67.2785 64.5694L67.0979 44.3554L49.2426 54.9729L49.8891 74.9394ZM50.8613 77.4926C51.8324 77.4926 57.2363 81.1683 57.2363 81.1683C57.2363 81.1683 62.1174 75.7352 67.8757 75.9122C73.6334 76.0891 79.2014 81.3123 79.2014 81.3123L86.8089 76.8307L68.4808 67.0036C68.4808 67.0036 49.8897 77.4926 50.8613 77.4926ZM46.5763 127.921L25.0973 115.819L25.7364 92.0898L46.6825 79.6229L56.7269 85.6463C56.7269 85.6463 54.9132 93.2899 57.5992 97.9447C60.2857 102.6 67.4639 104.251 67.4639 104.251L67.2058 115.644L46.5763 127.921ZM63.8669 115.091L46.1911 105.217L28.7762 115.48L46.8982 125.635L63.8663 115.092L63.8669 115.091ZM65.5918 112.973C65.1057 112.132 65.5876 105.614 65.5876 105.614C65.5876 105.614 58.5129 103.838 55.7871 98.7628C53.0618 93.6883 54.7299 86.5202 54.7299 86.5202L47.0443 82.1724L47.6983 102.959C47.6983 102.959 66.0774 113.814 65.5918 112.973V112.973ZM110.437 91.2685L110.697 115.921L89.8269 127.232L69.2829 115.52L68.7517 104.146C68.7517 104.146 75.9406 102.621 78.6287 97.9675C81.3168 93.3138 80.0264 85.5453 80.0264 85.5453L89.7568 80.0012L110.437 91.2685ZM90.6817 82.709L90.9686 102.954L108.564 112.904L108.297 92.1328L90.6817 82.709ZM88.5158 82.8062L82.145 86.4888C82.145 86.4888 83.2761 94.2297 80.2437 99.1273C77.2113 104.025 71.0377 105.439 71.0377 105.439L71.1152 113.206L88.2587 102.777L88.5158 82.8062Z" fill="white"/>
</svg>
