<svg width="136" height="136" viewBox="0 0 136 136" fill="none" xmlns="http://www.w3.org/2000/svg">
<path d="M87.8422 128L108.487 77H94.8016L80.6809 109.956L70.6377 77H60.1163L49.3372 109.956L41.7323 94.9403L34.8527 116.047L41.8386 128H55.3058L65.0489 98.4439L74.3458 128H87.8422Z" fill="white"/>
<path d="M12.9598 110.493H21.3669C23.6639 110.525 25.9542 110.238 28.1722 109.64L30.345 102.949L36.4225 84.2516C35.9536 83.5135 35.4203 82.8184 34.8288 82.1744C31.7156 78.7248 27.1531 77 21.1411 77H0V128H12.9598V110.493ZM24.0895 88.7327C25.3096 89.9581 25.9188 91.5979 25.917 93.652C25.9153 95.7062 25.384 97.3469 24.3233 98.5741C23.1474 99.9234 20.9835 100.597 17.8314 100.595H12.9598V86.8945H17.8527C20.7905 86.8945 22.8694 87.5072 24.0895 88.7327ZM100.101 118.865L104.029 108.971H115.369L109.987 93.9602L116.718 77L136 128H121.781L118.487 118.865H100.101Z" fill="white"/>
</svg>
