<svg width="136" height="136" viewBox="0 0 136 136" fill="none" xmlns="http://www.w3.org/2000/svg">
<g clip-path="url(#clip0_98_816)">
<path d="M135.942 100.888C135.551 97.7219 133.947 94.9753 131.16 92.7148C131.126 92.6727 131.087 92.6336 131.046 92.5979L130.905 92.497L130.86 92.4651L129.381 91.4026L129.33 91.3655L129.142 91.2326C129.072 91.1923 128.998 91.161 128.921 91.1397C124.241 88.3533 116.492 86.4009 104.638 90.5845C101.809 85.8245 101.487 82.0101 103.381 76.1664C103.719 75.149 103.405 74.477 102.396 74.0414C100.366 73.1781 97.5879 73.619 95.617 74.1397C94.6979 74.3787 94.1454 74.8994 93.9701 75.6883C92.7217 81.532 89.0932 86.8711 85.5843 92.0242L85.3772 92.327C83.215 87.7423 83.6639 84.1909 85.17 79.7417C85.4701 78.8545 85.2337 78.2648 84.4023 77.8239C82.0807 76.6259 78.5984 77.4494 77.2118 77.8584C75.4534 78.3711 73.5675 83.1231 71.4611 88.8128C70.9298 90.2445 70.4729 91.4691 70.1993 92.0401C69.5486 93.3683 68.927 94.8823 68.2682 96.4894C66.7807 100.126 65.1046 104.219 62.7087 106.79C61.8375 104.865 63.2081 101.828 64.5389 98.8826C66.114 95.4003 67.6015 92.1092 65.8882 90.0081C65.6173 89.6759 65.2812 89.4027 64.9007 89.2054C64.5201 89.008 64.1032 88.8907 63.6756 88.8606C63.1177 88.8181 62.5577 88.9092 62.042 89.1262C62.22 87.6255 62.2279 86.4408 61.7896 85.009C61.1628 82.9664 59.5345 81.8215 57.2926 81.8826C52.1873 82.0314 47.8682 85.8351 45.1403 89.0014C43.3234 91.1264 39.2965 92.7467 35.761 94.1678C34.3639 94.7601 33.0357 95.2914 31.9281 95.8226C30.1617 94.3298 27.9171 92.8237 25.5531 91.2326C18.9125 86.7755 11.3873 81.7206 11.127 74.8675C10.7551 64.7445 22.2832 57.5647 32.3451 52.4408C39.9712 48.5626 46.6012 45.9914 52.615 44.5862C61.0618 42.6126 68.1965 43.0111 73.8171 45.7656C76.8931 47.2717 78.3328 50.5469 77.419 53.915C75.0284 62.6673 65.1232 68.6651 56.6525 71.3639C51.5498 72.9895 47.2068 73.6695 43.3712 73.4464C38.5634 73.1675 34.6375 70.7556 32.9587 69.7276C32.6897 69.544 32.4053 69.384 32.1087 69.2495L32.0317 69.2309C31.8797 69.1931 31.7202 69.1979 31.5707 69.2447C31.4212 69.2916 31.2875 69.3787 31.1843 69.4965C30.839 69.9083 30.9612 70.559 31.0861 70.8884C32.7196 75.157 36.0931 77.8531 41.1107 78.9023C42.7529 79.2312 44.4245 79.3905 46.0992 79.3778C57.8425 79.3778 72.8264 72.607 78.3301 67.0315C82.0834 63.2331 84.8167 59.3284 85.9482 52.5948C87.1303 45.5425 82.349 40.6417 77.4775 38.3839C65.6385 32.92 52.1926 35.0795 42.9967 37.8526C32.2389 41.0959 21.1092 46.9928 12.4657 54.0372C1.80886 62.7151 -2.0427 70.7715 1.01199 78.0098C4.14902 85.4287 11.799 90.0692 19.1967 94.5583C21.5873 96.0059 23.861 97.3845 25.909 98.8083C25.2928 99.1084 24.6632 99.4139 24.0231 99.7194C17.8128 102.729 10.7684 106.116 6.86105 111.712C4.02417 115.79 3.49292 119.848 5.28324 123.777C6.23949 125.867 7.93949 127.286 10.3009 127.992C11.5293 128.34 12.8014 128.51 14.0781 128.495C18.6761 128.495 23.7362 126.635 26.4907 124.917C31.357 121.862 34.51 117.761 35.8646 112.727C37.0706 108.249 36.781 103.799 35.0279 99.8283L40.9912 96.8214C38.1145 106.384 40.3192 112.095 42.7417 115.245C43.6342 116.406 45.2439 117.105 47.0421 117.136C48.8404 117.168 50.4953 116.491 51.4303 115.338C53.1993 113.147 54.5062 110.583 55.7095 108.02C55.6457 109.694 55.7254 111.388 56.2965 112.825C56.8092 114.119 57.6539 114.977 58.7429 115.306C59.901 115.66 61.2584 115.362 62.5653 114.47C68.4542 110.44 72.481 100.769 75.7164 92.9937C76.1759 91.8887 76.6168 90.8262 77.0445 89.8328C77.8449 92.6973 78.9584 95.465 80.3648 98.0858C80.6782 98.6542 80.6517 98.9039 80.2267 99.3714C79.5865 100.073 78.694 100.92 77.7484 101.818C74.885 104.535 71.3203 107.927 70.8421 110.91C70.6562 112.105 71.4796 113.195 72.7573 113.442C76.6009 114.207 81.2307 113.088 85.146 110.453C88.7054 108.063 90.0442 104.729 89.1304 100.575C88.2459 96.5744 90.2646 91.6072 95.1309 85.8006C95.9278 89.1289 96.9903 91.8197 98.4565 94.1758L98.4167 94.2076C94.8732 97.3022 90.0176 101.539 90.772 106.679C90.8353 107.168 90.9998 107.638 91.255 108.059C91.5102 108.481 91.8505 108.845 92.2542 109.128C92.6856 109.419 93.1726 109.618 93.6845 109.712C94.1965 109.806 94.7224 109.794 95.2292 109.675C99.8696 108.7 103.363 106.737 105.902 103.68C108.441 100.622 107.514 97.2331 106.659 94.6034C113.3 92.8025 119.212 92.8476 124.748 94.7362C127.856 95.7987 130.084 97.5439 131.37 99.9531C132.988 102.984 132.114 105.781 128.902 107.829C127.917 108.458 127.442 108.844 127.412 109.33C127.406 109.442 127.427 109.555 127.473 109.658C127.519 109.761 127.589 109.852 127.678 109.922C128.05 110.227 129.197 110.759 131.792 109.125C134.183 107.624 135.586 105.582 135.944 103.016C136.016 102.308 136.015 101.595 135.942 100.888ZM29.7632 107.545L29.7367 107.885C29.3223 111.773 27.3461 115.163 23.8531 117.978C21.659 119.747 19.2764 120.834 17.1461 121.041C15.6586 121.185 14.5775 120.983 13.9346 120.438C13.4539 120.032 13.1962 119.423 13.1378 118.579C12.7021 111.811 23.3165 105.085 29.2904 102.872C29.7168 104.391 29.8767 105.972 29.7632 107.545ZM56.95 88.4569C55.9671 94.0589 53.101 104.633 48.596 108.737C48.3809 108.934 48.2003 109.003 48.1179 108.984C48.0356 108.966 47.9718 108.867 47.9054 108.719C46.402 105.234 46.9571 99.3475 49.2336 94.7229C50.984 91.1583 53.4835 88.7969 56.2779 88.0823C56.3939 88.0503 56.5135 88.0334 56.6339 88.0319C56.7279 88.0252 56.8215 88.0505 56.8995 88.1036C56.9324 88.1556 56.9539 88.2139 56.9626 88.2748C56.9713 88.3357 56.967 88.3977 56.95 88.4569ZM79.127 108.878C78.2796 109.763 77.1189 109.643 77.3925 109.319L81.7062 104.74C81.3582 106.315 80.3303 107.619 79.127 108.878ZM97.0221 104.918C96.6119 105.12 96.168 105.245 95.7126 105.287C95.5904 102.878 97.9253 100.166 100.228 98.3567C100.847 100.87 99.5801 103.526 97.0221 104.918Z" fill="white"/>
</g>
<defs>
<clipPath id="clip0_98_816">
<rect width="136" height="136" fill="white"/>
</clipPath>
</defs>
</svg>
