<svg width="98" height="110" viewBox="0 0 98 110" fill="none" xmlns="http://www.w3.org/2000/svg">
<path d="M16.6895 72.3496L15.9297 101.311H19.26H22.5903L21.8305 72.3496H16.6895Z" fill="white"/>
<path d="M0.565834 109.94C0.565834 109.94 0.587391 109.978 0.59278 110H37.9269C37.9269 110 37.9485 109.962 37.9539 109.94C38.1102 109.553 38.2395 109.149 38.3365 108.724C38.455 108.184 38.5197 107.617 38.5197 107.038C38.5197 105.015 37.7545 103.204 36.5474 101.971C36.5582 101.808 36.5636 101.644 36.5636 101.475C36.5636 97.7554 33.9823 94.7392 30.7921 94.7392C30.7489 94.7392 30.7058 94.7392 30.6681 94.7392C29.6173 93.4738 28.1515 92.6884 26.5241 92.6884C25.6942 92.6884 24.9074 92.8956 24.1907 93.2611C23.1345 91.6685 21.4855 90.6431 19.6263 90.6431C17.8857 90.6431 16.3283 91.543 15.2721 92.9611C14.5769 92.6175 13.8117 92.4266 13.0141 92.4266C11.0526 92.4266 9.31738 93.572 8.27193 95.3228C5.5721 95.5791 3.40038 98.0008 3.02855 101.104C1.22327 102.244 0 104.469 0 107.033C0 107.617 0.0646646 108.184 0.18322 108.718C0.274831 109.144 0.404162 109.547 0.56044 109.935L0.565834 109.94Z" fill="white"/>
<path d="M17.6324 72.3496L17.1528 101.311H19.2599H21.3723L20.8873 72.3496H17.6324Z" fill="white"/>
<path d="M36.364 110C36.3693 109.858 36.3855 109.722 36.3855 109.58C36.3855 107.606 35.7065 105.833 34.6287 104.628C34.6395 104.47 34.6449 104.306 34.6449 104.142C34.6449 100.51 32.3492 97.559 29.5147 97.559C29.477 97.559 29.4392 97.559 29.4015 97.559C28.4692 96.3209 27.1651 95.5519 25.7155 95.5519C24.9773 95.5519 24.2767 95.7537 23.6408 96.1137C22.7031 94.5592 21.232 93.5557 19.583 93.5557C18.0364 93.5557 16.6514 94.4338 15.7138 95.8246C15.0941 95.4865 14.415 95.301 13.7037 95.301C11.9577 95.301 10.4165 96.4246 9.48961 98.1317C7.09156 98.3826 5.15695 100.75 4.82823 103.782C3.22234 104.895 2.13379 107.071 2.13379 109.575C2.13379 109.716 2.14996 109.853 2.15535 109.995H36.3586L36.364 110Z" fill="white"/>
<path d="M18.71 72.3496L18.5483 101.311H19.2597H19.9764L19.8147 72.3496H18.71Z" fill="white"/>
<path d="M31.1802 110C31.2556 109.629 31.2933 109.242 31.2933 108.844C31.2933 107.453 30.8137 106.21 30.0593 105.364C30.0647 105.25 30.07 105.141 30.07 105.026C30.07 102.473 28.4534 100.401 26.4649 100.401C26.4379 100.401 26.411 100.401 26.384 100.401C25.7266 99.5336 24.8105 98.9936 23.792 98.9936C23.2747 98.9936 22.7789 99.1354 22.337 99.3863C21.6796 98.2954 20.6449 97.5864 19.4863 97.5864C18.3977 97.5864 17.4277 98.2028 16.7649 99.1791C16.3338 98.9445 15.8542 98.8082 15.353 98.8082C14.1244 98.8082 13.0412 99.5936 12.3891 100.799C10.7024 100.973 9.34442 102.642 9.11269 104.77C7.98642 105.55 7.22119 107.082 7.22119 108.844C7.22119 109.242 7.25892 109.629 7.33436 110H31.1748H31.1802Z" fill="white"/>
<path d="M15.8324 64.8008H22.7948L23.9696 69.8241H14.5498L15.8324 64.8008Z" fill="#D9A640"/>
<path d="M14.5498 70.7676L19.2597 85.7503L23.9696 70.7676H14.5498Z" fill="#2D416A"/>
<path d="M16.0425 72.1313L19.2596 82.3798L22.4822 72.1313H16.0425Z" fill="white"/>
<path d="M19.2598 72.3496C19.9281 72.3496 20.467 74.0077 20.467 76.0585C20.467 78.1092 19.9281 79.7673 19.2598 79.7673C18.5916 79.7673 18.0527 78.1092 18.0527 76.0585C18.0527 74.0077 18.5916 72.3496 19.2598 72.3496Z" fill="#2D416A"/>
<path d="M19.2599 16.5693L0.134766 71.3896L19.2599 65.8426L38.385 71.3896L19.2599 16.5693Z" fill="#D9A640"/>
<path d="M19.2598 16.5693L15.6924 66.8789L19.2598 65.8426L22.8326 66.8789L19.2598 16.5693Z" fill="#2D416A"/>
<path d="M79.9963 43.8021C89.9394 39.7381 94.7449 28.2855 90.7296 18.2218C86.7144 8.1582 75.3989 3.29446 65.4557 7.3584C55.5126 11.4223 50.7072 22.875 54.7224 32.9386C58.7377 43.0023 70.0532 47.866 79.9963 43.8021Z" fill="white"/>
<path d="M70.0773 27.2212C70.1096 27.194 70.1258 27.1612 70.1258 27.1231V22.4106C70.1258 22.3561 70.0934 22.3125 70.0395 22.2907C69.9856 22.2688 69.921 22.2797 69.8779 22.3125L65.9494 25.4541C65.917 25.4814 65.9009 25.5141 65.9009 25.5523V30.2647C65.9009 30.3192 65.9332 30.3629 65.9871 30.3847C66.041 30.4065 66.1057 30.3956 66.1488 30.3629L70.0773 27.2212Z" fill="#D9A640"/>
<path d="M75.2988 22.4106V27.1231C75.2988 27.1612 75.315 27.194 75.3473 27.2212L79.2758 30.3629C79.3189 30.3956 79.3836 30.4065 79.4375 30.3847C79.4914 30.3629 79.5237 30.3192 79.5237 30.2647V25.5523C79.5237 25.5141 79.5075 25.4814 79.4752 25.4541L75.5467 22.3125C75.5036 22.2797 75.4389 22.2688 75.385 22.2907C75.3311 22.3125 75.2988 22.3561 75.2988 22.4106Z" fill="#D9A640"/>
<path d="M70.0342 32.5283L72.7125 40.1697L75.3853 32.5283H70.0342Z" fill="#D9A640"/>
<path d="M70.8799 33.2266L72.7121 38.4517L74.5389 33.2266H70.8799Z" fill="white"/>
<path d="M72.7122 33.3354C73.0894 33.3354 73.3966 34.1808 73.3966 35.2226C73.3966 36.2643 73.0894 37.1098 72.7122 37.1098C72.335 37.1098 72.0278 36.2643 72.0278 35.2226C72.0278 34.1808 72.335 33.3354 72.7122 33.3354Z" fill="#D9A640"/>
<path d="M69.5166 22.1982C69.5166 26.1689 70.1094 29.6541 70.9985 31.634H74.4259C75.315 29.6486 75.9078 26.1634 75.9078 22.1982C75.9078 16.024 74.4798 11.0171 72.7122 11.0171C70.9447 11.0171 69.522 16.024 69.522 22.1982H69.5166Z" fill="#D9A640"/>
<path d="M70.1743 15.4077H75.2453C74.6633 12.7406 73.7418 11.0171 72.7071 11.0171C71.6725 11.0171 70.7563 12.7406 70.1689 15.4077H70.1743Z" fill="#D9A640"/>
<path d="M70.433 30.0088H75.0566L75.8434 32.1796H69.5815L70.433 30.0088Z" fill="#D9A640"/>
<path d="M72.7126 21.7944C72.9928 21.7944 73.2192 24.1179 73.2192 26.9868C73.2192 29.8558 72.9928 32.1792 72.7126 32.1792C72.4324 32.1792 72.2061 29.8558 72.2061 26.9868C72.2061 24.1179 72.4324 21.7944 72.7126 21.7944Z" fill="#31466F"/>
<path d="M72.7123 16.8418C73.5961 16.8418 74.3128 17.5672 74.3128 18.4617C74.3128 19.3562 73.5961 20.0816 72.7123 20.0816C71.8285 20.0816 71.1118 19.3562 71.1118 18.4617C71.1118 17.5672 71.8285 16.8418 72.7123 16.8418Z" fill="#31466F"/>
<path d="M57.0152 47.2332C58.5999 45.6293 58.5999 43.0289 57.0152 41.425C55.4305 39.8211 52.8612 39.8211 51.2765 41.425C49.6919 43.0289 49.6919 45.6293 51.2766 47.2332C52.8612 48.8371 55.4305 48.8371 57.0152 47.2332Z" fill="white"/>
<path d="M48.6722 48.7983C48.6722 50.8163 47.0556 52.4471 45.0671 52.4471C43.0786 52.4471 41.4619 50.8109 41.4619 48.7983C41.4619 46.7857 43.0786 45.1494 45.0671 45.1494C47.0556 45.1494 48.6722 46.7857 48.6722 48.7983Z" fill="white"/>
</svg>
