<svg width="68" height="110" viewBox="0 0 68 110" fill="none" xmlns="http://www.w3.org/2000/svg">
<path d="M53.1318 6.44802C33.4441 -7.60806 15.9417 5.47303 13.9307 6.97614C11.9197 8.47925 1.12734 17.0239 0.074919 31.7571C-0.977505 46.4903 9.40595 60.9594 9.40595 60.9594L12.3085 66.376C13.381 68.3801 13.9642 70.9733 14.4804 73.1738C15.3518 76.8909 15.4054 81.2378 17.5103 84.5419C17.7985 84.9888 18.1203 85.3815 18.4689 85.7336H50.2628C52.7229 82.4024 52.6022 78.9967 53.2457 74.88C53.9898 70.0931 56.2086 65.7598 58.5615 61.6026C59.2587 60.3636 65.1241 48.9616 66.4379 45.5153C67.7518 42.069 72.8262 20.5041 53.1385 6.44802H53.1318Z" fill="#D9A640"/>
<path d="M20.0239 88.3198V90.6625C20.0239 91.7255 20.7546 92.5854 21.6529 92.5854H46.3345C47.2328 92.5854 47.9635 91.7255 47.9635 90.6625V88.3198H20.0239Z" fill="#D9A640"/>
<path d="M46.4018 97.7788C46.4018 98.1851 46.127 98.5101 45.7918 98.5101H22.2028C21.8676 98.5101 21.5928 98.1783 21.5928 97.7788V95.1653C21.5928 94.7591 21.8676 94.4341 22.2028 94.4341H45.7918C46.127 94.4341 46.4018 94.7659 46.4018 95.1653V97.7788Z" fill="#D9A640"/>
<path d="M29.2145 106.385H38.7734L39.6181 105.586L45.2355 100.271H33.9939H22.7524L28.3698 105.586L29.2145 106.385Z" fill="#D9A640"/>
<path d="M33.9936 110C36.5007 110 38.5318 109.038 38.5318 107.86H29.4622C29.4622 109.045 31.4933 110 34.0003 110H33.9936Z" fill="#D9A640"/>
<path d="M26.8348 85.727L24.4551 45.8743L26.9689 50.3159C27.123 50.5935 27.3844 50.756 27.6526 50.7357C27.9207 50.7222 28.1688 50.5326 28.3028 50.2347L30.964 44.4051L33.7191 50.58C33.8599 50.8914 34.1213 51.0878 34.4028 51.0878C34.6911 51.081 34.9525 50.905 35.0933 50.5935L37.8819 44.5879L39.8259 50.0857C39.9465 50.4175 40.1945 50.6409 40.4761 50.6748C40.7643 50.7019 41.0392 50.5461 41.2067 50.2482L43.4926 46.0774L40.8112 85.754H42.4066L45.3293 42.489C45.3628 42.0353 45.1483 41.6155 44.8064 41.4598C44.4646 41.3041 44.0892 41.4598 43.8814 41.8322L40.6973 47.6347L38.6997 41.9812C38.579 41.6358 38.3176 41.4056 38.0159 41.3853C37.721 41.365 37.4394 41.5546 37.2853 41.8796L34.4163 48.0681L31.6545 41.8796C31.5137 41.5681 31.2523 41.3718 30.964 41.3718C30.6624 41.3582 30.4144 41.5613 30.2736 41.8728L27.5386 47.8785L24.0931 41.778C23.8853 41.4124 23.5099 41.2634 23.1748 41.4192C22.8396 41.5749 22.6251 41.9879 22.6519 42.4416L25.2327 85.7202H26.8281L26.8348 85.727Z" fill="white"/>
</svg>
