<svg width="113" height="110" viewBox="0 0 113 110" fill="none" xmlns="http://www.w3.org/2000/svg">
<path d="M102.251 74.6138C107.703 74.6138 112.122 69.995 112.122 64.2974C112.122 58.5998 107.703 53.981 102.251 53.981C96.7988 53.981 92.3792 58.5998 92.3792 64.2974C92.3792 69.995 96.7988 74.6138 102.251 74.6138Z" fill="white"/>
<path d="M9.87156 74.6138C15.3235 74.6138 19.7431 69.995 19.7431 64.2974C19.7431 58.5998 15.3235 53.981 9.87156 53.981C4.41965 53.981 0 58.5998 0 64.2974C0 69.995 4.41965 74.6138 9.87156 74.6138Z" fill="white"/>
<path d="M97.4951 87.6175V43.6885H13.8574V87.6175C10.0338 82.0866 7.18413 75.762 5.58496 68.9325C11.0919 92.5052 31.4242 110 55.6762 110C81.2509 110 102.467 90.5393 106.531 65.0187C105.202 73.3572 102.034 81.0405 97.4951 87.6175Z" fill="#2D416A"/>
<path d="M14.2421 43.6885H97.8799V87.6176C102.425 81.0405 105.587 73.3513 106.916 65.0188C106.934 64.8925 106.958 64.7603 106.976 64.634C107.012 64.3995 107.048 64.1591 107.078 63.9186C107.102 63.7442 107.126 63.5699 107.15 63.3955C107.18 63.1791 107.204 62.9627 107.228 62.7463C107.258 62.5178 107.282 62.2834 107.307 62.0489C107.325 61.8565 107.349 61.6641 107.367 61.4718C107.403 61.1111 107.433 60.7443 107.457 60.3836C107.469 60.2273 107.475 60.071 107.487 59.9207C107.505 59.6562 107.523 59.3856 107.535 59.1151C107.541 58.9528 107.553 58.7904 107.559 58.6341C107.571 58.3576 107.583 58.075 107.589 57.7985C107.589 57.6542 107.601 57.5159 107.601 57.3716C107.607 56.9688 107.613 56.566 107.613 56.1632C107.613 56.1452 107.613 56.1332 107.613 56.1151C107.613 48.7686 106.206 41.7707 103.663 35.3921C103.687 35.4702 103.705 35.5484 103.705 35.6265C103.705 38.8489 82.3691 41.4581 56.055 41.4581C29.7408 41.4581 8.40457 38.8489 8.40457 35.6265C8.40457 35.5484 8.4226 35.4702 8.44665 35.3921C5.90361 41.7707 4.49683 48.7686 4.49683 56.1151C4.49683 56.542 4.49683 56.9688 4.51486 57.3897C4.51486 57.5159 4.52087 57.6361 4.52688 57.7624C4.53289 58.063 4.54492 58.3636 4.55694 58.6642C4.56296 58.8085 4.56897 58.9528 4.57498 59.1031C4.59302 59.3916 4.61105 59.6802 4.62908 59.9688C4.64111 60.1071 4.64712 60.2393 4.65915 60.3776C4.68921 60.7744 4.72528 61.1772 4.76135 61.574C4.77337 61.7062 4.79141 61.8445 4.80343 61.9767C4.83349 62.2473 4.85754 62.5118 4.89361 62.7763C4.91766 62.9747 4.94171 63.1731 4.96575 63.3715C4.9898 63.5699 5.01986 63.7623 5.04391 63.9607C5.07397 64.1831 5.10403 64.4056 5.1401 64.622C5.16415 64.7783 5.18819 64.9286 5.21224 65.0789C5.36254 66.0108 5.53087 66.9306 5.72927 67.8444C5.72927 67.8624 5.73528 67.8804 5.74129 67.9045C5.81343 68.2351 5.88557 68.5658 5.96373 68.8965C5.96373 68.9145 5.96974 68.9265 5.97576 68.9446C7.57492 75.7741 10.4246 82.0926 14.2481 87.6296V43.7005L14.2421 43.6885Z" fill="#D9A640"/>
<path d="M56.043 35.38C56.055 35.344 56.073 35.3079 56.085 35.2778C56.067 35.3139 56.055 35.35 56.043 35.38Z" fill="#D9A640"/>
<path d="M56.043 35.2778C56.055 35.3139 56.067 35.344 56.085 35.38C56.073 35.344 56.061 35.3139 56.043 35.2778Z" fill="#D9A640"/>
<path d="M56.0792 35.38C56.0672 35.344 56.0551 35.3079 56.0371 35.2778C56.0491 35.3139 56.0612 35.35 56.0792 35.38Z" fill="#D9A640"/>
<path d="M56.085 35.278C56.073 35.3141 56.055 35.3501 56.043 35.3802C56.055 35.3441 56.073 35.308 56.085 35.272V35.278Z" fill="#D9A640"/>
<path d="M56.0611 29.7891C30.6848 29.7891 9.94368 32.2179 8.49481 35.2779C8.48279 35.314 8.46475 35.3501 8.45273 35.3862C8.42868 35.4643 8.41064 35.5425 8.41064 35.6206C8.41064 38.843 29.7469 41.4521 56.0611 41.4521C82.3752 41.4521 103.711 38.843 103.711 35.6206C103.711 35.5425 103.693 35.4643 103.669 35.3862C103.657 35.3501 103.639 35.314 103.627 35.2779C102.184 32.2179 81.4434 29.7891 56.0611 29.7891Z" fill="#D9A640"/>
<path d="M56.0611 38.9389C81.1094 38.9389 101.415 37.4531 101.415 35.6203C101.415 33.7875 81.1094 32.3018 56.0611 32.3018C31.0129 32.3018 10.7073 33.7875 10.7073 35.6203C10.7073 37.4531 31.0129 38.9389 56.0611 38.9389Z" fill="#D9A640"/>
<path d="M50.6022 92.8718C50.6022 92.8718 46.46 94.2966 43.1775 94.8858C39.6966 95.505 33.7388 94.5792 31.9653 92.4089C30.1857 90.2446 29.1817 86.0663 31.9653 83.4391C31.9653 83.4391 31.7308 90.7075 35.8309 88.6214C39.9311 86.5352 42.1735 84.7557 44.8007 83.8239C47.4279 82.898 53.6262 81.9962 55.3215 84.0583C57.1011 86.2226 57.4317 90.9239 50.6022 92.8778V92.8718Z" fill="#D9A640"/>
<path d="M61.4538 92.8718C61.4538 92.8718 65.596 94.2966 68.8785 94.8858C72.3594 95.505 78.3172 94.5792 80.0907 92.4089C81.8702 90.2446 82.8742 86.0663 80.0907 83.4391C80.0907 83.4391 80.3252 90.7075 76.2251 88.6214C72.1249 86.5352 69.8825 84.7557 67.2553 83.8239C64.6281 82.898 58.4298 81.9962 56.7344 84.0583C54.9549 86.2226 54.6243 90.9239 61.4538 92.8778V92.8718Z" fill="#D9A640"/>
<path d="M56.0249 110C69.6479 110 81.9242 104.62 90.6054 96.0045C89.5052 95.6137 88.4351 95.3432 87.6595 95.3913C85.2247 95.5356 81.7138 100.327 77.6557 101.572C73.5977 102.816 62.2412 103.501 60.3534 102.431C58.4597 101.361 56.0249 100.189 56.0249 100.189C56.0249 100.189 53.59 101.361 51.6963 102.431C49.8025 103.501 38.446 102.816 34.394 101.572C30.336 100.327 26.825 95.5356 24.3902 95.3913C23.6146 95.3432 22.5445 95.6137 21.4443 96.0045C30.1195 104.62 42.4019 110 56.0249 110Z" fill="#D9A640"/>
<path d="M7.00391 52.1533V56.8305C7.00391 56.8305 7.64117 57.0109 8.68724 58.3275C9.73331 59.6441 8.97581 61.4417 10.599 69.66C12.2222 77.8722 17.7352 83.5655 30.0536 83.5655C37.5925 83.5655 43.6525 80.9323 47.7647 74.211C49.7125 71.0246 50.8728 67.3334 51.7866 63.7082C52.0211 62.7763 52.2315 61.8445 52.3999 60.9307C54.3778 60.4016 56.0611 60.1131 56.0611 60.1131C56.0611 60.1131 57.7505 60.4016 59.7224 60.9307C59.8907 61.8445 60.1011 62.7763 60.3356 63.7082C61.2494 67.3334 62.4097 71.0246 64.3576 74.211C68.4697 80.9323 74.5297 83.5655 82.0686 83.5655C94.387 83.5655 99.9 77.8722 101.523 69.66C103.146 61.4477 102.395 59.6501 103.435 58.3275C104.481 57.0109 105.118 56.8305 105.118 56.8305V52.1533C105.118 52.1533 104.884 51.3717 102.858 50.9569C90.4492 48.3898 77.8363 47.7946 65.3615 50.3317C62.8486 50.8427 61.3035 51.9068 60.4077 53.3316C58.7364 53.9208 56.8847 54.4979 56.0611 54.4979C55.2375 54.4979 53.3918 53.9208 51.7145 53.3316C50.8247 51.9128 49.2737 50.8427 46.7607 50.3317C34.292 47.7946 21.673 48.3898 9.26439 50.9569C7.23236 51.3777 7.00391 52.1533 7.00391 52.1533ZM62.3375 61.7483C61.8025 59.3676 61.5139 56.7885 62.9989 54.6903C63.2093 54.3957 63.4437 54.1312 63.6902 53.8907C65.1331 52.4719 67.1471 51.8587 69.0769 51.3838C70.8204 50.9509 72.5939 50.6804 74.3794 50.5241C76.2852 50.3557 78.203 50.2836 80.1148 50.3016C83.6438 50.3317 85.5616 50.3437 89.0665 50.7525C91.9522 51.0892 96.9902 51.2936 99.0763 53.7224C100.838 55.7725 100.573 58.4477 100.411 60.9487C100.231 63.7262 99.8278 66.4857 99.2447 69.2031C98.896 70.8263 98.5713 72.6419 97.8619 74.211C97.5974 74.7941 97.2788 75.3412 96.888 75.8342C94.9161 78.2991 92.83 79.9103 89.7879 80.7519C86.7279 81.5996 83.4814 81.5876 80.3312 81.4614C66.9126 80.9263 64.4537 70.5317 62.4999 62.4517C62.4458 62.2232 62.3917 61.9888 62.3375 61.7543V61.7483ZM13.0459 53.7224C15.132 51.2936 20.17 51.0892 23.0557 50.7525C26.5607 50.3437 28.4785 50.3317 32.0075 50.3016C33.9192 50.2836 35.837 50.3557 37.7428 50.5241C39.5284 50.6804 41.3019 50.9509 43.0453 51.3838C44.9751 51.8647 46.9891 52.4719 48.432 53.8907C48.6785 54.1372 48.9129 54.3957 49.1234 54.6903C50.6143 56.7824 50.3197 59.3616 49.7907 61.7483C49.7366 61.9827 49.6825 62.2172 49.6284 62.4457C47.6745 70.5257 45.2156 80.9203 31.797 81.4553C28.6528 81.5816 25.4004 81.5936 22.3403 80.7459C19.2983 79.9043 17.2121 78.2931 15.2402 75.8282C14.8495 75.3352 14.5308 74.7881 14.2663 74.205C13.5569 72.6359 13.2322 70.8203 12.8836 69.197C12.3004 66.4797 11.8916 63.7202 11.7172 60.9427C11.5549 58.4357 11.2904 55.7604 13.0519 53.7164L13.0459 53.7224Z" fill="white"/>
<path d="M55.7124 4.32861C55.8387 4.55707 55.9529 4.78552 56.0551 5.026C55.9589 4.78552 55.8387 4.55707 55.7124 4.32861Z" fill="white"/>
<path d="M37.4001 5.28467C37.815 5.42895 38.2178 5.60329 38.6025 5.80168C38.2238 5.60329 37.821 5.43497 37.4001 5.28467Z" fill="white"/>
<path d="M55.2195 3.54688C55.3698 3.75729 55.5081 3.97373 55.6403 4.19617C55.5141 3.97373 55.3758 3.75729 55.2195 3.54688Z" fill="white"/>
<path d="M27.5166 32.0558C25.0517 27.6791 18.4746 28.4727 14.9036 29.2843C15.643 28.8034 16.4606 28.4066 17.3444 28.124C13.9597 29.2062 11.4768 31.9115 11.2183 35.1219C12.9798 34.2682 19.2141 33.5167 28.1177 33.0057C27.9073 32.6991 27.7029 32.3865 27.5166 32.0558Z" fill="white"/>
<path d="M56.4819 4.18443C56.6142 3.96199 56.7525 3.74557 56.9028 3.53516C56.7465 3.74557 56.6082 3.96199 56.4819 4.18443Z" fill="white"/>
<path d="M56.0549 5.02616C56.1571 4.78568 56.2714 4.55121 56.3976 4.32275C56.2714 4.55121 56.1511 4.78568 56.0549 5.02616Z" fill="white"/>
<path d="M30.3482 30.8832C30.775 31.6347 31.25 32.2719 31.761 32.819C38.5665 32.5004 46.5924 32.314 55.2135 32.302V3.54702C53.6624 1.41881 50.9089 0 47.7827 0C47.7226 0 47.6625 0.00601778 47.6024 0.00601778C47.5423 0.00601778 47.4822 0 47.422 0C43.1896 0 39.6426 2.46489 38.6026 5.80751C38.7769 5.24239 39.0535 4.71333 39.3601 4.20232C40.3821 5.9578 41.8851 7.66518 43.869 7.84554C44.7768 7.9297 45.4381 8.62709 45.3419 9.40864C45.2517 10.1361 44.5303 10.6772 43.6946 10.6772C43.6345 10.6772 43.5744 10.6772 43.5143 10.6711C39.7388 10.3285 37.4002 7.37661 36.0836 4.91774C35.3742 4.76143 34.6347 4.67125 33.8652 4.67125C28.8212 4.67125 24.7271 8.17621 24.7271 12.4988C24.7271 12.3906 24.7571 12.2884 24.7631 12.1801C25.5808 13.3044 26.2421 14.609 26.6869 16.148C27.3843 18.5588 28.8031 19.8513 31.0336 20.1038C34.7489 20.5367 39.336 17.9997 39.8891 17.1339C40.2077 16.3945 41.1456 16.0398 42.0053 16.3163C42.865 16.5869 43.2919 17.4285 42.9792 18.162C42.1556 20.0738 36.7389 22.9895 31.8632 22.9895C31.6768 22.9895 31.4905 22.9896 31.3041 22.9775C27.3422 22.7851 24.5587 20.6088 23.4646 16.8334C23.2962 16.2562 23.0858 15.7272 22.8574 15.2282C23.2842 15.1741 23.711 15.114 24.1559 15.114C19.1059 15.114 15.0178 18.6189 15.0178 22.9415C15.0178 24.9314 15.8896 26.741 17.3204 28.1237C16.7553 27.5766 16.3104 26.9514 15.9376 26.2841C21.0838 25.4604 27.5166 25.8933 30.3302 30.8832H30.3482Z" fill="white"/>
<path d="M36.0896 4.91748C36.5285 5.01367 36.9553 5.13391 37.3641 5.2782C36.9553 5.1279 36.5285 5.01367 36.0896 4.91748Z" fill="white"/>
<path d="M71.0366 32.4824C71.1508 32.0134 71.3192 31.5385 71.5837 31.0575C73.0626 28.3341 76.2369 26.4825 81.0284 25.5506C86.3309 24.5166 91.423 24.8773 96.3648 25.9174C95.974 26.723 95.4389 27.4684 94.7776 28.1117C95.2405 28.262 95.6854 28.4424 96.1063 28.6468C91.3989 27.6127 86.6135 27.2339 81.7198 28.1898C77.9323 28.9293 75.4794 30.276 74.4333 32.1998C74.3612 32.3261 74.3071 32.4583 74.253 32.5785C88.2487 33.0294 98.5471 33.9793 100.898 35.1216C100.645 31.9052 98.1623 29.1998 94.7716 28.1117C96.2025 26.7289 97.0742 24.9194 97.0742 22.9294C97.0742 18.6069 92.9801 15.1019 87.9361 15.1019C88.4651 15.1019 88.9701 15.162 89.4751 15.2342C88.892 15.8053 88.2487 16.3524 87.4912 16.8454C85.0744 18.4205 82.1346 19.2141 78.7258 19.2141C77.4994 19.2141 76.2068 19.1119 74.8602 18.9075C74.0065 18.7752 73.4353 18.0778 73.5856 17.3444C73.7359 16.6109 74.5536 16.1179 75.4133 16.2502C79.6036 16.8875 83.0243 16.3704 85.5854 14.6991C86.2467 14.2663 86.7998 13.7733 87.2928 13.2563C87.2146 13.9176 87.0704 14.5669 86.8179 15.1681C87.1726 14.3324 87.377 13.4366 87.377 12.4928C87.377 8.17019 83.2829 4.66525 78.2329 4.66525C76.9162 4.66525 75.6658 4.91174 74.5355 5.3446C74.8902 5.21234 75.257 5.09209 75.6357 4.9959C75.6237 5.08006 75.6417 5.17024 75.6357 5.25441C75.2269 7.92369 73.6097 10.1421 70.8382 11.8435C70.5617 12.0118 70.243 12.096 69.9244 12.096C69.4374 12.096 68.9505 11.8976 68.6439 11.5308C68.1389 10.9236 68.3012 10.082 69.0046 9.64911C71.0727 8.3806 72.2209 6.82953 72.5155 4.90572C72.5696 4.55703 72.5275 4.20835 72.5275 3.85966C72.8402 4.31055 73.1107 4.78547 73.3211 5.29047C72.0887 2.21238 68.698 0 64.688 0C64.6279 0 64.5678 0.00601778 64.5077 0.00601778C64.4475 0.00601778 64.3874 0 64.3273 0C61.2071 0 58.4597 1.41881 56.9026 3.53501V32.308C61.8444 32.314 66.5938 32.3802 71.0306 32.4944L71.0366 32.4824Z" fill="white"/>
<path d="M71.0367 32.4823C66.5999 32.368 61.8505 32.3019 56.9087 32.2959V38.933C62.9807 38.927 68.7642 38.8309 74.0306 38.6625C71.9565 37.3399 70.4295 35.0554 71.0427 32.4823H71.0367Z" fill="white"/>
<path d="M100.904 35.1217C98.5534 33.9794 88.2489 33.0295 74.2592 32.5786C73.4656 34.5686 75.1009 36.1016 76.2672 36.7148C77.3734 37.298 78.9966 37.6286 79.9164 36.6367C80.4575 36.0535 81.4495 35.9513 82.1288 36.4202C82.8142 36.8832 82.9284 37.7308 82.3873 38.314C82.3873 38.314 82.3813 38.32 82.3753 38.326C92.1447 37.815 99.0403 37.0274 100.91 36.1196C100.922 35.9693 100.934 35.819 100.934 35.6687C100.934 35.4824 100.922 35.302 100.91 35.1217H100.904Z" fill="white"/>
<path d="M55.2196 32.3018C46.5985 32.3138 38.5666 32.5001 31.7671 32.8188C34.226 35.47 37.4003 35.8969 38.8251 35.939C41.0916 36.0351 42.7749 35.3378 43.2258 34.6644C43.6587 34.0212 44.6266 33.7987 45.3781 34.1715C46.1296 34.5442 46.3881 35.3678 45.9552 36.0171C44.8671 37.6343 42.2278 38.6443 39.1557 38.6443C39.0054 38.6443 38.8612 38.6443 38.7109 38.6383C34.3342 38.5 30.4565 36.4139 28.1179 33.0112C19.2142 33.5222 12.9799 34.2677 11.2184 35.1274C11.2064 35.3137 11.1943 35.4941 11.1943 35.6865C11.1943 35.8368 11.2124 35.981 11.2184 36.1253C14.4648 37.7004 32.8673 38.9149 55.2196 38.9449V32.3078V32.3018Z" fill="white"/>
<path d="M56.0609 38.7046C56.091 38.7827 56.1331 38.8549 56.1692 38.933C56.1331 38.8549 56.091 38.7827 56.0549 38.7046H56.0609Z" fill="white"/>
<path d="M55.9469 38.9389C55.983 38.8607 56.0191 38.7886 56.0551 38.7104C56.0251 38.7886 55.977 38.8607 55.9409 38.9389H55.9469Z" fill="white"/>
<path d="M81.7259 28.1842C86.6136 27.2343 91.4051 27.6131 96.1124 28.6411C95.6855 28.4367 95.2407 28.2564 94.7838 28.1061C95.4511 27.4628 95.9801 26.7173 96.3709 25.9117C91.4231 24.8717 86.337 24.517 81.0345 25.545C76.243 26.4769 73.0627 28.3285 71.5898 31.0519C71.3253 31.5329 71.1509 32.0078 71.0427 32.4767C72.1369 32.5068 73.213 32.5369 74.2651 32.5669C74.3132 32.4407 74.3733 32.3144 74.4455 32.1882C75.4915 30.2644 77.9444 28.9117 81.7319 28.1782L81.7259 28.1842Z" fill="#D9A640"/>
<path d="M74.0246 38.6685C76.9825 38.5723 79.778 38.4581 82.3691 38.3259C82.3691 38.3259 82.3752 38.3198 82.3812 38.3138C82.9222 37.7307 82.808 36.883 82.1227 36.4201C81.4433 35.9571 80.4513 36.0533 79.9103 36.6365C78.9904 37.6345 77.3672 37.3038 76.261 36.7146C75.0947 36.1014 73.4595 34.5684 74.2531 32.5784C73.201 32.5424 72.1248 32.5123 71.0307 32.4883C70.4175 35.0614 71.9445 37.3459 74.0186 38.6685H74.0246Z" fill="#D9A640"/>
<path d="M87.9422 15.1021C87.5634 15.1021 87.1907 15.1261 86.824 15.1682C87.1907 15.1321 87.5634 15.1021 87.9422 15.1021Z" fill="#D9A640"/>
<path d="M87.2989 13.2505C86.7999 13.7675 86.2528 14.2605 85.5915 14.6933C83.0304 16.3586 79.6096 16.8817 75.4193 16.2444C74.5596 16.1061 73.742 16.5991 73.5917 17.3386C73.4354 18.072 74.0126 18.7754 74.8663 18.9017C76.2189 19.1061 77.5055 19.2083 78.7319 19.2083C82.1407 19.2083 85.0805 18.4147 87.4973 16.8396C88.2548 16.3466 88.8981 15.7995 89.4812 15.2284C88.9822 15.1563 88.4712 15.0961 87.9422 15.0961C87.5634 15.0961 87.1907 15.1202 86.8239 15.1623C87.0825 14.5551 87.2207 13.9118 87.2989 13.2505Z" fill="#D9A640"/>
<path d="M74.5417 5.33877C74.187 5.47104 73.8383 5.62734 73.5077 5.80168C73.8383 5.62734 74.181 5.47705 74.5417 5.33877Z" fill="#D9A640"/>
<path d="M72.5158 4.89958C72.2212 6.82339 71.0729 8.37448 69.0048 9.64299C68.2954 10.0758 68.1331 10.9175 68.6441 11.5247C68.9507 11.8914 69.4377 12.0898 69.9246 12.0898C70.2433 12.0898 70.5619 12.0057 70.8385 11.8373C73.616 10.136 75.2272 7.91757 75.636 5.24828C75.648 5.16412 75.636 5.07392 75.636 4.98976C75.2572 5.08595 74.8905 5.20018 74.5358 5.33846C74.1811 5.47673 73.8324 5.62702 73.5017 5.80137C73.4476 5.62702 73.3815 5.45269 73.3154 5.28435C73.1049 4.77935 72.8344 4.30441 72.5218 3.85352C72.5218 4.20221 72.5639 4.5569 72.5098 4.89958H72.5158Z" fill="#D9A640"/>
<path d="M27.5166 32.0556C27.7029 32.3863 27.9013 32.6989 28.1178 33.0055C29.2901 32.9394 30.5045 32.8733 31.767 32.8192C31.262 32.2721 30.781 31.6408 30.3542 30.8833C27.5406 25.8935 21.1079 25.4606 15.9617 26.2842C16.3344 26.9455 16.7793 27.5768 17.3444 28.1239C16.4607 28.4064 15.643 28.8032 14.9036 29.2842C18.4807 28.4725 25.0517 27.685 27.5166 32.0556Z" fill="#D9A640"/>
<path d="M38.7046 38.6325C38.8549 38.6325 39.0052 38.6385 39.1494 38.6385C42.2215 38.6385 44.8608 37.6285 45.9489 36.0113C46.3818 35.3681 46.1233 34.5384 45.3718 34.1657C44.6203 33.7929 43.6524 34.0154 43.2195 34.6586C42.7686 35.332 41.0853 36.0294 38.8188 35.9332C37.394 35.8911 34.2197 35.4582 31.7608 32.813C30.4983 32.8731 29.2839 32.9332 28.1116 32.9994C30.4502 36.4081 34.3279 38.4943 38.7046 38.6265V38.6325Z" fill="#D9A640"/>
<path d="M24.7329 12.4927C24.7329 12.7933 24.763 13.0879 24.799 13.3824C24.757 13.0879 24.7329 12.7933 24.7329 12.4927Z" fill="#D9A640"/>
<path d="M25.2923 15.168C24.9556 15.132 24.619 15.1139 24.2703 15.1079C24.6129 15.1079 24.9556 15.132 25.2923 15.168Z" fill="#D9A640"/>
<path d="M23.4764 16.8217C24.5646 20.5972 27.3481 22.7795 31.316 22.9659C31.5023 22.9779 31.6887 22.9779 31.8751 22.9779C36.7507 22.9779 42.1675 20.0621 42.9911 18.1503C43.3097 17.4169 42.8769 16.5752 42.0172 16.3047C41.1515 16.0341 40.2136 16.3888 39.901 17.1223C39.3479 17.988 34.7608 20.525 31.0454 20.0922C28.815 19.8457 27.3962 18.5471 26.6988 16.1363C26.2539 14.5973 25.5926 13.2927 24.775 12.1685C24.775 12.2767 24.7389 12.3789 24.7389 12.4871C24.7389 12.7877 24.769 13.0823 24.8051 13.3769C24.8892 13.9961 25.0576 14.5973 25.298 15.1624C24.9614 15.1263 24.6247 15.1083 24.276 15.1023C24.2399 15.1023 24.2099 15.1023 24.1738 15.1023C23.7289 15.1023 23.3021 15.1624 22.8752 15.2165C23.1037 15.7155 23.3141 16.2385 23.4824 16.8217H23.4764Z" fill="#D9A640"/>
<path d="M37.3699 5.27881C37.3699 5.27881 37.3879 5.2788 37.3999 5.29083C37.3879 5.29083 37.3819 5.29083 37.3699 5.27881Z" fill="#D9A640"/>
<path d="M38.603 5.80127H38.5964L38.603 5.80783V5.80127Z" fill="#D9A640"/>
<path d="M43.5203 10.6651C43.5804 10.6651 43.6405 10.6711 43.7006 10.6711C44.5363 10.6711 45.2577 10.13 45.3479 9.40261C45.4441 8.62106 44.7888 7.92367 43.875 7.83951C41.891 7.65915 40.3881 5.95177 39.366 4.19629C39.0534 4.7073 38.7829 5.23634 38.6085 5.80146C38.2238 5.60307 37.827 5.42873 37.4061 5.28444C37.3941 5.28444 37.3881 5.28443 37.3761 5.27241C36.9613 5.12812 36.5344 5.0079 36.1016 4.91171C37.4182 7.37058 39.7568 10.3164 43.5323 10.6651H43.5203Z" fill="#D9A640"/>
<path d="M56.3977 4.3225C56.4218 4.27441 56.4518 4.22632 56.4819 4.17822C56.4518 4.22632 56.4278 4.27441 56.3977 4.3225Z" fill="white"/>
<path d="M56.0611 32.296C56.3436 32.296 56.6262 32.296 56.9027 32.296V3.52295C56.7464 3.73337 56.6081 3.94979 56.4819 4.17223C56.4518 4.22032 56.4278 4.26841 56.3977 4.31651C56.2715 4.54496 56.1512 4.77943 56.0551 5.01991C55.9589 4.77943 55.8386 4.55098 55.7124 4.32253C55.6883 4.27443 55.6583 4.23234 55.6342 4.18424C55.508 3.9618 55.3697 3.74538 55.2134 3.53497V32.2899C55.4959 32.2899 55.7725 32.2899 56.0551 32.2899L56.0611 32.296Z" fill="white"/>
<path d="M56.0611 32.2959C55.7786 32.2959 55.496 32.2959 55.2195 32.2959V38.933C55.466 38.933 55.7064 38.933 55.9529 38.933C55.989 38.8549 56.0311 38.7827 56.0672 38.7046C56.0972 38.7827 56.1453 38.8549 56.1814 38.933C56.4279 38.933 56.6683 38.933 56.9148 38.933V32.2959C56.6323 32.2959 56.3557 32.2959 56.0732 32.2959H56.0611Z" fill="white"/>
</svg>
