<svg width="76" height="100" viewBox="0 0 76 100" fill="none" xmlns="http://www.w3.org/2000/svg">
<path d="M76 0H0V100L39.5 77.5L76 100V0Z" fill="#112448"/>
<path d="M38 42L56 32L38 22L20 32L38 42Z" stroke="white"/>
<path d="M37.9999 42L50.3199 35.156C51.9409 39.2722 52.401 43.7544 51.6499 48.114C46.577 48.6064 41.7943 50.7073 37.9999 54.11C34.206 50.7076 29.4241 48.6068 24.3519 48.114C23.6003 43.7544 24.0604 39.2721 25.6819 35.156L37.9999 42Z" stroke="white"/>
<path d="M38 42L56 32L38 22L20 32L38 42ZM38 42L50.32 35.156C51.941 39.2722 52.4011 43.7543 51.65 48.114C46.5771 48.6064 41.7944 50.7072 38 54.11C34.2061 50.7076 29.4242 48.6068 24.352 48.114C23.6004 43.7544 24.0605 39.2721 25.682 35.156L38 42ZM30 54V39L38 34.556" stroke="white" stroke-linecap="round" stroke-linejoin="round"/>
</svg>
