<svg width="60" height="38" viewBox="0 0 60 38" fill="none" xmlns="http://www.w3.org/2000/svg">
<path d="M60.0001 18.6395C60.0001 28.3369 52.139 36.198 42.4445 36.198C32.7501 36.198 24.886 28.3369 24.886 18.6395C24.886 8.9422 32.7472 1.08105 42.4445 1.08105C52.1419 1.08105 60.0001 8.9422 60.0001 18.6395Z" fill="#50984F"/>
<path d="M58.8136 18.6395C58.8136 28.3369 50.9524 36.198 41.258 36.198C31.5635 36.198 23.6995 28.3369 23.6995 18.6395C23.6995 8.9422 31.5606 1.08105 41.258 1.08105C50.9553 1.08105 58.8136 8.9422 58.8136 18.6395Z" fill="#437243"/>
<path d="M54.8569 18.6394C54.8569 26.1525 48.7682 32.2412 41.2552 32.2412C33.7421 32.2412 27.6533 26.1525 27.6533 18.6394C27.6533 11.1264 33.7421 5.0376 41.2552 5.0376C48.7682 5.0376 54.8569 11.1264 54.8569 18.6394Z" fill="#D9A640"/>
<path d="M51.0684 18.6393C51.0684 24.058 46.6737 28.4527 41.255 28.4527C35.8363 28.4527 31.4416 24.058 31.4416 18.6393C31.4416 13.2206 35.8363 8.82593 41.255 8.82593C46.6737 8.82593 51.0684 13.2206 51.0684 18.6393Z" fill="#437243"/>
<path d="M47.6311 18.6396C47.6311 22.1612 44.7767 25.0156 41.2551 25.0156C37.7336 25.0156 34.8792 22.1612 34.8792 18.6396C34.8792 15.118 37.7336 12.2637 41.2551 12.2637C44.7767 12.2637 47.6311 15.118 47.6311 18.6396Z" fill="#D9A640"/>
<path d="M44.3647 18.6394C44.3647 20.3567 42.9723 21.7491 41.255 21.7491C39.5378 21.7491 38.1454 20.3567 38.1454 18.6394C38.1454 16.9222 39.5378 15.5298 41.255 15.5298C42.9723 15.5298 44.3647 16.9222 44.3647 18.6394Z" fill="#437243"/>
<path d="M42.1282 18.2304C41.9019 17.7025 41.2927 17.4559 40.7619 17.6793C40.2339 17.9055 39.9874 18.5147 40.2107 19.0456C40.437 19.5735 41.0462 19.8201 41.577 19.5967C42.105 19.3704 42.3515 18.7613 42.1282 18.2304Z" fill="#437243"/>
<path d="M12.8157 17.9577H14.8753L12.5053 15.0598H10.4429L12.8157 17.9577Z" fill="#D9A640"/>
<path d="M15.0465 17.9577H17.1089L14.7361 15.0598H12.6765L15.0465 17.9577Z" fill="#D9A640"/>
<path d="M17.2802 17.9577H19.3397L16.9698 15.0598H14.9073L17.2802 17.9577Z" fill="#D9A640"/>
<path d="M12.8157 19.2629H14.8753L12.5053 22.1608H10.4429L12.8157 19.2629Z" fill="#D9A640"/>
<path d="M15.0465 19.2629H17.1089L14.7361 22.1608H12.6765L15.0465 19.2629Z" fill="#D9A640"/>
<path d="M17.2802 19.2629H19.3397L16.9698 22.1608H14.9073L17.2802 19.2629Z" fill="#D9A640"/>
<path d="M41.258 17.6821H11.4756V19.5386H41.258V17.6821Z" fill="#50984F"/>
<path d="M42.1717 18.6104C42.1717 19.1238 41.7569 19.5386 41.2435 19.5386C40.73 19.5386 40.3152 19.1238 40.3152 18.6104C40.3152 18.0969 40.73 17.6821 41.2435 17.6821C41.7569 17.6821 42.1717 18.0969 42.1717 18.6104Z" fill="#50984F"/>
<path d="M10.5821 16.7595C10.6546 16.7595 10.7126 16.8756 10.7126 17.0148V20.2057C10.7126 20.3478 10.6546 20.4609 10.5821 20.4609H8.83003C8.75751 20.4609 8.69949 20.3449 8.69949 20.2057V17.0148C8.69949 16.8727 8.75751 16.7595 8.83003 16.7595H10.5821Z" fill="#50984F"/>
<path d="M11.9571 18.9556V18.2681C11.9571 17.4327 11.2783 16.7539 10.4429 16.7539V20.4698C11.2783 20.4698 11.9571 19.791 11.9571 18.9556Z" fill="#50984F"/>
<path d="M4.20324 14.5869C1.88261 14.5869 0 16.3883 0 18.6103C0 20.8323 1.88261 22.6337 4.20324 22.6337C5.06478 22.6337 5.86539 22.3842 6.53257 21.9607V21.9694L9.03596 20.5538V16.6697L6.53257 15.2541V15.2628C5.86539 14.8364 5.06478 14.5898 4.20324 14.5898V14.5869Z" fill="#D9A640"/>
<path d="M9.03603 19.6169L4.60073 19.9533L5.09387 19.5995C5.12577 19.5762 5.14317 19.5414 5.14027 19.5037C5.14027 19.466 5.11706 19.4312 5.08515 19.4109L4.43538 19.0367L5.12287 18.648C5.15768 18.6277 5.17798 18.5929 5.17798 18.5523C5.17798 18.5117 5.15768 18.4739 5.12287 18.4536L4.45569 18.062L5.06775 17.7894C5.10546 17.772 5.12868 17.7371 5.13448 17.6965C5.13738 17.6559 5.11997 17.6182 5.08806 17.595L4.62394 17.273L9.03893 17.6472V17.4239L4.22363 17.0148C4.17431 17.0119 4.125 17.041 4.11049 17.0874C4.09309 17.1338 4.1105 17.1889 4.15111 17.2179L4.79798 17.6646L4.16851 17.946C4.1308 17.9634 4.10468 18.0011 4.10178 18.0417C4.10178 18.0823 4.12209 18.1229 4.1569 18.1433L4.8444 18.5465L4.1569 18.9352C4.12209 18.9555 4.1018 18.9932 4.0989 19.0309C4.0989 19.0744 4.1192 19.1092 4.15401 19.1295L4.82119 19.5153L4.1424 19.9998C4.10179 20.0288 4.08438 20.081 4.10178 20.1274C4.11919 20.1738 4.1656 20.2057 4.21492 20.1999L9.03024 19.8344V19.6111L9.03603 19.6169Z" fill="#112448"/>
<path d="M15.3424 6.82431L17.2366 7.63363L16.1923 4.03664L14.2952 3.23022L15.3424 6.82431Z" fill="#D9A640"/>
<path d="M17.3963 7.7005L19.2934 8.50692L18.2462 4.90994L16.3491 4.10352L17.3963 7.7005Z" fill="#D9A640"/>
<path d="M19.45 8.57357L21.3471 9.37999L20.2999 5.78591L18.4028 4.97949L19.45 8.57357Z" fill="#D9A640"/>
<path d="M14.8288 8.02539L16.726 8.83181L13.4104 10.5723L11.5132 9.76297L14.8288 8.02539Z" fill="#D9A640"/>
<path d="M16.8857 8.90137L18.7799 9.70779L15.4643 11.4454L13.5672 10.6389L16.8857 8.90137Z" fill="#D9A640"/>
<path d="M18.9394 9.77466L20.8365 10.5811L17.518 12.3216L15.6209 11.5122L18.9394 9.77466Z" fill="#D9A640"/>
<path d="M14.2226 6.05062L13.4954 7.75879L40.8981 19.4244L41.6252 17.7162L14.2226 6.05062Z" fill="#50984F"/>
<path d="M42.0964 18.9235C41.8963 19.3964 41.3509 19.6139 40.8781 19.4138C40.4053 19.2136 40.1877 18.6683 40.3879 18.1954C40.588 17.7226 41.1334 17.505 41.6062 17.7052C42.079 17.9054 42.2966 18.4507 42.0964 18.9235Z" fill="#50984F"/>
<path d="M13.7587 4.84617C13.8254 4.87518 13.8341 5.00281 13.779 5.13335L12.5287 8.06895C12.4736 8.19948 12.375 8.28071 12.3083 8.2546L10.6954 7.56711C10.6287 7.5381 10.62 7.41047 10.6751 7.27993L11.9254 4.34433C11.9805 4.2138 12.0791 4.13257 12.1458 4.15868L13.7587 4.84617Z" fill="#50984F"/>
<path d="M14.1647 7.4075L14.4345 6.77513C14.7623 6.00642 14.4026 5.11588 13.6339 4.78809L12.1777 8.20812C12.9464 8.53591 13.8369 8.17621 14.1647 7.4075Z" fill="#50984F"/>
<path d="M8.74027 0.349932C6.60528 -0.558015 4.16862 0.361537 3.29838 2.40659C2.42814 4.45165 3.45501 6.84481 5.58999 7.75565C6.38191 8.09215 7.21735 8.17917 7.99766 8.04863V8.05443L10.852 7.73245L12.372 4.15867L10.6229 1.87575V1.88155C10.1733 1.22887 9.53508 0.686424 8.74027 0.349932Z" fill="#D9A640"/>
<path d="M11.2146 6.87087L7.00261 5.44368L7.59728 5.31315C7.63499 5.30444 7.66399 5.27834 7.6785 5.24353C7.693 5.20872 7.6872 5.16811 7.664 5.1362L7.21438 4.53864L7.99759 4.45161C8.03821 4.44581 8.07011 4.4226 8.08752 4.38489C8.10202 4.34718 8.09911 4.30657 8.0759 4.27466L7.61469 3.65389L8.28477 3.64229C8.32538 3.64229 8.36308 3.61908 8.38048 3.58428C8.39789 3.54947 8.3979 3.50595 8.3776 3.47114L8.0759 2.99251L11.992 5.06658L12.079 4.86062L7.80904 2.59801C7.76552 2.5748 7.7104 2.5835 7.67559 2.62121C7.64078 2.65892 7.63499 2.71404 7.664 2.75755L8.08171 3.42183L7.39132 3.43343C7.35071 3.43343 7.31009 3.45954 7.29269 3.49725C7.27528 3.53496 7.27819 3.57847 7.3043 3.61328L7.78004 4.25436L6.99391 4.34138C6.9533 4.34718 6.91849 4.37039 6.90399 4.4081C6.88659 4.44581 6.89238 4.48642 6.91849 4.51833L7.38263 5.1333L6.56749 5.31315C6.51818 5.32475 6.48337 5.36536 6.48047 5.41467C6.48047 5.46399 6.50948 5.5104 6.55589 5.52781L11.1304 7.07683L11.2175 6.87087H11.2146Z" fill="#112448"/>
<path d="M15.3424 30.4514L17.2366 29.645L16.1923 33.242L14.2952 34.0484L15.3424 30.4514Z" fill="#D9A640"/>
<path d="M17.3963 29.5781L19.2934 28.7717L18.2462 32.3658L16.3491 33.1751L17.3963 29.5781Z" fill="#D9A640"/>
<path d="M19.45 28.7051L21.3471 27.8958L20.2999 31.4927L18.4028 32.2992L19.45 28.7051Z" fill="#D9A640"/>
<path d="M14.8288 29.2534L16.726 28.4441L13.4104 26.7065L11.5132 27.513L14.8288 29.2534Z" fill="#D9A640"/>
<path d="M16.8857 28.3775L18.7799 27.5711L15.4643 25.8335L13.5672 26.6399L16.8857 28.3775Z" fill="#D9A640"/>
<path d="M18.9394 27.5042L20.8365 26.6949L17.518 24.9573L15.6209 25.7637L18.9394 27.5042Z" fill="#D9A640"/>
<path d="M40.8874 17.6664L13.4847 29.332L14.2119 31.0402L41.6146 19.3746L40.8874 17.6664Z" fill="#50984F"/>
<path d="M13.7587 32.4297C13.8254 32.4007 13.8341 32.273 13.779 32.1425L12.5287 29.2069C12.4736 29.0763 12.375 28.9951 12.3083 29.0212L10.6954 29.7087C10.6287 29.7377 10.62 29.8654 10.6751 29.9959L11.9254 32.9315C11.9805 33.062 12.0791 33.1433 12.1458 33.1171L13.7587 32.4297Z" fill="#50984F"/>
<path d="M14.1647 29.8714L14.4345 30.5037C14.7623 31.2725 14.4026 32.163 13.6339 32.4908L12.1777 29.0708C12.9464 28.743 13.8369 29.1027 14.1647 29.8714Z" fill="#50984F"/>
<path d="M8.74027 36.926C6.60528 37.834 4.16862 36.9144 3.29838 34.8694C2.42814 32.8243 3.45501 30.4312 5.58999 29.5203C6.38191 29.1838 7.21735 29.0968 7.99766 29.2273V29.2215L10.852 29.5435L12.372 33.1173L10.6229 35.4002V35.3944C10.1733 36.0471 9.53508 36.5896 8.74027 36.926Z" fill="#D9A640"/>
<path d="M11.2146 30.4079L7.00261 31.8351L7.59728 31.9656C7.63499 31.9743 7.66399 32.0004 7.6785 32.0352C7.693 32.07 7.6872 32.1107 7.664 32.1426L7.21438 32.7401L7.99759 32.8271C8.03821 32.8329 8.07011 32.8562 8.08752 32.8939C8.10202 32.9316 8.09911 32.9722 8.0759 33.0041L7.61469 33.6249L8.28477 33.6365C8.32538 33.6365 8.36308 33.6597 8.38048 33.6945C8.39789 33.7293 8.3979 33.7728 8.3776 33.8076L8.0759 34.2862L11.992 32.2122L12.079 32.4181L7.80904 34.6808C7.76552 34.704 7.7104 34.6953 7.67559 34.6575C7.64078 34.6198 7.63499 34.5647 7.664 34.5212L8.08171 33.8569L7.39132 33.8453C7.35071 33.8453 7.31009 33.8192 7.29269 33.7844C7.27528 33.7467 7.27819 33.7032 7.3043 33.6684L7.78004 33.0273L6.99391 32.9403C6.9533 32.9345 6.91849 32.9113 6.90399 32.8736C6.88659 32.8359 6.89238 32.7952 6.91849 32.7633L7.38263 32.1484L6.56749 31.9685C6.51818 31.9569 6.48337 31.9163 6.48047 31.867C6.48047 31.8177 6.50948 31.7713 6.55589 31.7539L11.1304 30.2048L11.2175 30.4108L11.2146 30.4079Z" fill="#112448"/>
</svg>
