<svg width="60" height="60" viewBox="0 0 60 60" fill="none" xmlns="http://www.w3.org/2000/svg">
<path d="M14.9998 37.8202C11.93 37.8202 9.44226 35.3325 9.44226 32.2626C9.44226 29.1928 11.93 26.7051 14.9998 26.7051C18.0697 26.7051 20.5574 29.1928 20.5574 32.2626C20.5574 35.3325 18.0697 37.8202 14.9998 37.8202Z" fill="#D9A640"/>
<path d="M0 4.12549V9.9004C0.690816 9.59381 1.45538 9.41917 2.26262 9.41917C5.33248 9.41917 7.82018 11.9069 7.82018 14.9767C7.82018 18.0466 5.33248 20.5343 2.26262 20.5343C1.45538 20.5343 0.690816 20.3597 0 20.0531V25.828C0 25.828 0 25.8474 0 25.8552C0 28.1372 1.87064 30.0001 4.14878 30.0001H25.8513C28.1294 30.0001 29.9923 28.1411 30 25.8668C30 25.8629 30 25.8552 30 25.8513V20.0764C29.3092 20.383 28.5447 20.5576 27.7374 20.5576C24.6676 20.5576 22.1798 18.0699 22.1798 15C22.1798 11.9302 24.6676 9.44245 27.7374 9.44245C28.5447 9.44245 29.3092 9.61321 30 9.92369V4.14878C30 4.14878 30 4.13714 30 4.13326C29.9923 1.859 28.1294 0 25.8513 0H4.14878C1.87452 0 0.015524 1.85125 0 4.12163C0 4.12163 0 4.12161 0 4.12549Z" fill="#D9A640"/>
<path d="M37.8201 44.9924C37.8201 48.0623 35.3324 50.5499 32.2625 50.5499C29.1926 50.5499 26.7049 48.0623 26.7049 44.9924C26.7049 41.9225 29.1926 39.4348 32.2625 39.4348C35.3324 39.4348 37.8201 41.9225 37.8201 44.9924Z" fill="#112448"/>
<path d="M4.12549 59.9922H9.9004C9.59381 59.3014 9.41914 58.5368 9.41914 57.7296C9.41914 54.6597 11.9069 52.172 14.9767 52.172C18.0466 52.172 20.5343 54.6597 20.5343 57.7296C20.5343 58.5368 20.3597 59.3014 20.0531 59.9922H25.828C25.828 59.9922 25.8474 59.9922 25.8551 59.9922C28.1372 59.9922 30 58.1216 30 55.8434V34.141C30 31.8628 28.141 29.9999 25.8668 29.9922C25.8629 29.9922 25.8551 29.9922 25.8513 29.9922H20.0763C20.3829 30.683 20.5576 31.4476 20.5576 32.2548C20.5576 35.3247 18.0699 37.8124 15 37.8124C11.9301 37.8124 9.44245 35.3247 9.44245 32.2548C9.44245 31.4476 9.61321 30.683 9.92369 29.9922H4.14878C4.14878 29.9922 4.13712 29.9922 4.13324 29.9922C1.85898 29.9999 0 31.8628 0 34.141V55.8434C0 58.1177 1.85123 59.9767 4.12161 59.9922C4.12161 59.9922 4.12161 59.9922 4.12549 59.9922Z" fill="#112448"/>
<path d="M44.9998 22.1719C48.0697 22.1719 50.5574 24.6596 50.5574 27.7295C50.5574 30.7993 48.0697 33.287 44.9998 33.287C41.93 33.287 39.4423 30.7993 39.4423 27.7295C39.4423 24.6596 41.93 22.1719 44.9998 22.1719Z" fill="#D9A640"/>
<path d="M59.9996 55.8668V50.0918C59.3088 50.3984 58.5442 50.5731 57.737 50.5731C54.6671 50.5731 52.1794 48.0854 52.1794 45.0155C52.1794 41.9456 54.6671 39.4579 57.737 39.4579C58.5442 39.4579 59.3088 39.6326 59.9996 39.9392V34.1642C59.9996 34.1642 59.9996 34.1448 59.9996 34.1371C59.9996 31.8551 58.129 29.9922 55.8508 29.9922H34.1484C31.8702 29.9922 30.0073 31.8512 29.9996 34.1254C29.9996 34.1293 29.9996 34.1371 29.9996 34.141V39.9159C30.6904 39.6093 31.455 39.4346 32.2622 39.4346C35.3321 39.4346 37.8198 41.9224 37.8198 44.9922C37.8198 48.0621 35.3321 50.5498 32.2622 50.5498C31.455 50.5498 30.6904 50.3751 29.9996 50.0685V55.8434C29.9996 55.8434 29.9996 55.8551 29.9996 55.859C30.0073 58.1332 31.8702 59.9922 34.1484 59.9922H55.8508C58.1251 59.9922 59.9841 58.141 59.9996 55.8706C59.9996 55.8706 59.9996 55.8706 59.9996 55.8668Z" fill="#D9A640"/>
<path d="M22.1796 15C22.1796 11.9301 24.6673 9.44238 27.7372 9.44238C30.807 9.44238 33.2948 11.9301 33.2948 15C33.2948 18.0698 30.807 20.5575 27.7372 20.5575C24.6673 20.5575 22.1796 18.0698 22.1796 15Z" fill="#112448"/>
<path d="M55.8741 0H50.0992C50.4058 0.690816 50.5805 1.45538 50.5805 2.26262C50.5805 5.33248 48.0928 7.8202 45.0229 7.8202C41.953 7.8202 39.4653 5.33248 39.4653 2.26262C39.4653 1.45538 39.6361 0.690816 39.9466 0H34.1717C34.1717 0 34.1522 0 34.1445 0C31.8625 0 29.9996 1.87064 29.9996 4.14878V25.8513C29.9996 28.1294 31.8586 29.9923 34.1329 30.0001C34.1367 30.0001 34.1445 30.0001 34.1484 30.0001H39.9233C39.6167 29.3092 39.442 28.5447 39.442 27.7374C39.442 24.6676 41.9298 22.1799 44.9996 22.1799C48.0695 22.1799 50.5572 24.6676 50.5572 27.7374C50.5572 28.5447 50.3825 29.3092 50.0759 30.0001H55.8508C55.8508 30.0001 55.8625 30.0001 55.8664 30.0001C58.1406 29.9923 59.9996 28.1294 59.9996 25.8513V4.14878C59.9996 1.87452 58.1484 0.015524 55.878 0C55.878 0 55.878 0 55.8741 0Z" fill="#112448"/>
</svg>
