<svg width="60" height="32" viewBox="0 0 60 32" fill="none" xmlns="http://www.w3.org/2000/svg">
<path d="M0 15.6338C0 15.6338 26.9289 50.8099 60 15.6338C26.9314 -19.5423 0 15.6338 0 15.6338Z" fill="#112448"/>
<path d="M4.26228 15.6339C4.26228 15.6339 27.3642 43.2922 55.7348 15.6339C27.3642 -12.0244 4.26228 15.6339 4.26228 15.6339Z" fill="#D9A640"/>
<path d="M30.0001 29.1046C37.2476 29.1046 43.1229 23.0735 43.1229 15.6338C43.1229 8.19414 37.2476 2.16309 30.0001 2.16309C22.7526 2.16309 16.8773 8.19414 16.8773 15.6338C16.8773 23.0735 22.7526 29.1046 30.0001 29.1046Z" fill="#112448"/>
<path d="M39.1146 20.3529C41.6576 15.1806 39.6345 8.87149 34.5958 6.26106C29.5572 3.65063 23.411 5.72741 20.868 10.8997C18.325 16.0719 20.3481 22.3811 25.3868 24.9915C30.4255 27.6019 36.5716 25.5252 39.1146 20.3529Z" fill="#D9A640"/>
<path d="M29.9999 22.7173C33.811 22.7173 36.9005 19.5459 36.9005 15.6338C36.9005 11.7217 33.811 8.55029 29.9999 8.55029C26.1888 8.55029 23.0993 11.7217 23.0993 15.6338C23.0993 19.5459 26.1888 22.7173 29.9999 22.7173Z" fill="#112448"/>
<path d="M29.9999 13.3547C29.9999 14.8475 28.821 16.0576 27.3668 16.0576C25.9126 16.0576 24.7338 14.8475 24.7338 13.3547C24.7338 11.862 25.9126 10.6519 27.3668 10.6519C28.821 10.6519 29.9999 11.862 29.9999 13.3547Z" fill="#D9A640"/>
</svg>
