<svg width="162" height="42" viewBox="0 0 162 42" fill="none" xmlns="http://www.w3.org/2000/svg">
<path d="M6.02283 25.0951L7.93223 13.6387H17.3429C17.0701 15.5026 16.4427 19.5033 16.1154 20.5944C12.5892 21.6854 8.63401 23.7312 6.02283 25.0951Z" fill="#112448"/>
<path d="M22.6815 21.549C33.8177 16.1729 35.0928 10.0926 33.9816 7.9104C33.5725 15.4116 19.7975 19.776 9.84132 24.2767C-0.114857 28.7775 -1.04953 33.8237 0.7235 36.4151C1.3033 30.4141 6.86085 29.1866 22.6815 21.549Z" fill="#50984F"/>
<path d="M34.9367 8.72864C38.7555 16.0935 33.7714 21.0993 19.6615 28.2318C7.51142 34.3736 10.9157 41.1689 18.3579 41.3242C18.5192 41.3247 18.681 41.3249 18.8432 41.3249C18.6796 41.3278 18.5178 41.3275 18.3579 41.3242C8.34818 41.2934 0.175754 40.2772 2.34039 34.5056C4.79562 27.9592 37.3917 20.867 34.9367 8.72864Z" fill="#112448"/>
<path d="M30.163 22.64L26.617 40.0974H18.5702L20.4796 28.5046C23.2982 27.1862 29.0719 23.9493 30.163 22.64Z" fill="#112448"/>
<path d="M32.8907 4.9099L31.7996 8.04677L34.2546 6.13737L36.7095 8.18316L35.6184 5.04628L38.7553 3.27326L35.2093 3.13688L34.2546 0L33.2999 3.00049H30.0266L32.8907 4.9099Z" fill="#D9A640"/>
<path d="M156.283 24.9679V29.9379H153.668V25.0081L148.134 15.8528H150.931L155.056 22.7142L159.221 15.8528H161.797L156.283 24.9679Z" fill="#112448"/>
<path d="M145.115 26.6782H138.073L136.684 29.9379H133.988L140.326 15.8528H142.902L149.26 29.9379H146.524L145.115 26.6782ZM144.25 24.6258L141.594 18.4686L138.958 24.6258H144.25Z" fill="#112448"/>
<path d="M134.301 15.8528L129.633 29.9379H126.856L123.375 19.5149L119.834 29.9379H117.037L112.369 15.8528H115.085L118.586 26.5575L122.228 15.8528H124.643L128.204 26.6178L131.806 15.8528H134.301Z" fill="#112448"/>
<path d="M107.39 15.8528H110.005V29.9379H107.39V15.8528Z" fill="#112448"/>
<path d="M98.7815 15.8528C100.002 15.8528 101.062 16.054 101.961 16.4564C102.873 16.8589 103.57 17.4357 104.053 18.1869C104.536 18.9381 104.778 19.8301 104.778 20.8631C104.778 21.8825 104.536 22.7746 104.053 23.5392C103.57 24.2904 102.873 24.8672 101.961 25.2697C101.062 25.6721 100.002 25.8733 98.7815 25.8733H95.6023V29.9379H92.9865V15.8528H98.7815ZM98.6607 23.66C99.801 23.66 100.666 23.4185 101.256 22.9356C101.847 22.4527 102.142 21.7618 102.142 20.8631C102.142 19.9643 101.847 19.2735 101.256 18.7905C100.666 18.3076 99.801 18.0662 98.6607 18.0662H95.6023V23.66H98.6607Z" fill="#112448"/>
<path d="M84.6981 30.1391C83.6115 30.1391 82.5585 29.9849 81.539 29.6763C80.5329 29.3678 79.7348 28.9587 79.1445 28.4489L80.05 26.4166C80.6268 26.8727 81.3311 27.2483 82.1628 27.5435C83.0079 27.8252 83.853 27.966 84.6981 27.966C85.7444 27.966 86.5224 27.7983 87.0322 27.463C87.5553 27.1276 87.8169 26.6849 87.8169 26.1349C87.8169 25.7325 87.6694 25.4039 87.3743 25.149C87.0926 24.8807 86.7304 24.6728 86.2877 24.5252C85.845 24.3777 85.2414 24.21 84.4767 24.0222C83.4036 23.7673 82.5317 23.5124 81.8609 23.2576C81.2036 23.0027 80.6335 22.607 80.1506 22.0704C79.6811 21.5204 79.4464 20.7826 79.4464 19.857C79.4464 19.079 79.6543 18.3747 80.0701 17.7443C80.4994 17.1004 81.1366 16.5906 81.9817 16.215C82.8402 15.8394 83.8865 15.6516 85.1206 15.6516C85.9792 15.6516 86.8243 15.7589 87.656 15.9736C88.4876 16.1882 89.2053 16.4967 89.809 16.8991L88.984 18.9314C88.3669 18.5692 87.723 18.2942 87.0523 18.1064C86.3816 17.9186 85.731 17.8247 85.1005 17.8247C84.0676 17.8247 83.2963 17.9991 82.7865 18.3479C82.2902 18.6967 82.042 19.1595 82.042 19.7363C82.042 20.1387 82.1829 20.4674 82.4646 20.7222C82.7597 20.9771 83.1286 21.1783 83.5713 21.3259C84.014 21.4735 84.6176 21.6411 85.3822 21.8289C86.4285 22.0704 87.2871 22.3253 87.9578 22.5936C88.6285 22.8484 89.1986 23.2441 89.6681 23.7807C90.151 24.3173 90.3925 25.0417 90.3925 25.9539C90.3925 26.7319 90.1779 27.4361 89.7486 28.0666C89.3328 28.6971 88.6956 29.2001 87.837 29.5757C86.9785 29.9513 85.9322 30.1391 84.6981 30.1391Z" fill="#112448"/>
<path d="M69.9729 30.1391C68.5376 30.1391 67.2431 29.8306 66.0895 29.2135C64.9358 28.5831 64.0303 27.7178 63.373 26.6179C62.7157 25.5045 62.3871 24.2636 62.3871 22.8954C62.3871 21.5271 62.7157 20.293 63.373 19.193C64.0303 18.0796 64.9358 17.2144 66.0895 16.5973C67.2431 15.9668 68.5376 15.6516 69.9729 15.6516C71.4083 15.6516 72.7027 15.9668 73.8564 16.5973C75.01 17.2144 75.9155 18.0729 76.5728 19.1729C77.2301 20.2729 77.5587 21.5137 77.5587 22.8954C77.5587 24.2771 77.2301 25.5179 76.5728 26.6179C75.9155 27.7178 75.01 28.5831 73.8564 29.2135C72.7027 29.8306 71.4083 30.1391 69.9729 30.1391ZM69.9729 27.8453C70.9119 27.8453 71.757 27.6374 72.5082 27.2215C73.2594 26.7923 73.8497 26.202 74.2789 25.4508C74.7082 24.6862 74.9228 23.8344 74.9228 22.8954C74.9228 21.9564 74.7082 21.1113 74.2789 20.3601C73.8497 19.5954 73.2594 19.0052 72.5082 18.5894C71.757 18.1601 70.9119 17.9455 69.9729 17.9455C69.0339 17.9455 68.1888 18.1601 67.4376 18.5894C66.6864 19.0052 66.0962 19.5954 65.6669 20.3601C65.2376 21.1113 65.023 21.9564 65.023 22.8954C65.023 23.8344 65.2376 24.6862 65.6669 25.4508C66.0962 26.202 66.6864 26.7923 67.4376 27.2215C68.1888 27.6374 69.0339 27.8453 69.9729 27.8453Z" fill="#112448"/>
<path d="M59.6194 15.8528V29.9379H57.0036V23.9014H49.7196V29.9379H47.1038V15.8528H49.7196V21.6679H57.0036V15.8528H59.6194Z" fill="#112448"/>
<path d="M153.396 37.2587L151.791 40.8993C151.649 41.2365 151.483 41.4738 151.291 41.6112C151.104 41.7486 150.877 41.8172 150.611 41.8172C150.448 41.8172 150.29 41.7902 150.136 41.7361C149.986 41.6861 149.861 41.6112 149.761 41.5113L150.018 41.0616C150.188 41.224 150.386 41.3052 150.611 41.3052C150.756 41.3052 150.877 41.2656 150.973 41.1865C151.073 41.1116 151.162 40.9805 151.241 40.7931L151.348 40.5621L149.886 37.2587H150.511L151.666 39.9064L152.809 37.2587H153.396Z" fill="#112448"/>
<path d="M149.804 40.3747C149.716 40.4497 149.608 40.508 149.479 40.5496C149.35 40.5871 149.217 40.6058 149.079 40.6058C148.746 40.6058 148.488 40.5163 148.305 40.3373C148.122 40.1583 148.03 39.9022 148.03 39.5692V37.752H147.468V37.2587H148.03V36.5343H148.63V37.2587H149.579V37.752H148.63V39.5442C148.63 39.7232 148.673 39.8606 148.761 39.9564C148.852 40.0521 148.981 40.1 149.148 40.1C149.331 40.1 149.487 40.0479 149.616 39.9439L149.804 40.3747Z" fill="#112448"/>
<path d="M146.198 37.2588H146.798V40.5685H146.198V37.2588ZM146.498 36.6219C146.382 36.6219 146.284 36.5844 146.205 36.5095C146.13 36.4345 146.092 36.343 146.092 36.2347C146.092 36.1265 146.13 36.0349 146.205 35.96C146.284 35.8809 146.382 35.8413 146.498 35.8413C146.615 35.8413 146.71 35.8788 146.785 35.9537C146.864 36.0245 146.904 36.114 146.904 36.2222C146.904 36.3346 146.864 36.4304 146.785 36.5095C146.71 36.5844 146.615 36.6219 146.498 36.6219Z" fill="#112448"/>
<path d="M144.455 35.9349H145.054V40.5684H144.455V35.9349Z" fill="#112448"/>
<path d="M141.927 37.2275C142.385 37.2275 142.735 37.3399 142.977 37.5647C143.222 37.7896 143.345 38.1247 143.345 38.5701V40.5684H142.777V40.1313C142.677 40.2853 142.533 40.404 142.346 40.4872C142.163 40.5663 141.944 40.6059 141.69 40.6059C141.32 40.6059 141.022 40.5164 140.797 40.3374C140.577 40.1583 140.466 39.9231 140.466 39.6317C140.466 39.3403 140.572 39.1072 140.785 38.9323C140.997 38.7533 141.334 38.6638 141.796 38.6638H142.745V38.5452C142.745 38.287 142.671 38.0893 142.521 37.9519C142.371 37.8145 142.15 37.7458 141.859 37.7458C141.663 37.7458 141.472 37.7791 141.284 37.8458C141.097 37.9082 140.939 37.9935 140.81 38.1018L140.56 37.6522C140.731 37.5148 140.935 37.4107 141.172 37.3399C141.409 37.265 141.661 37.2275 141.927 37.2275ZM141.79 40.1438C142.019 40.1438 142.217 40.0938 142.383 39.9939C142.55 39.8898 142.671 39.7441 142.745 39.5568V39.0947H141.821C141.313 39.0947 141.059 39.2654 141.059 39.6067C141.059 39.7733 141.124 39.9044 141.253 40.0002C141.382 40.0959 141.561 40.1438 141.79 40.1438Z" fill="#112448"/>
<path d="M139.997 40.3747C139.91 40.4497 139.802 40.508 139.673 40.5496C139.544 40.5871 139.41 40.6058 139.273 40.6058C138.94 40.6058 138.682 40.5163 138.499 40.3373C138.315 40.1583 138.224 39.9022 138.224 39.5692V37.752H137.662V37.2587H138.224V36.5343H138.823V37.2587H139.773V37.752H138.823V39.5442C138.823 39.7232 138.867 39.8606 138.955 39.9564C139.046 40.0521 139.175 40.1 139.342 40.1C139.525 40.1 139.681 40.0479 139.81 39.9439L139.997 40.3747Z" fill="#112448"/>
<path d="M136.393 37.2588H136.992V40.5685H136.393V37.2588ZM136.692 36.6219C136.576 36.6219 136.478 36.5844 136.399 36.5095C136.324 36.4345 136.286 36.343 136.286 36.2347C136.286 36.1265 136.324 36.0349 136.399 35.96C136.478 35.8809 136.576 35.8413 136.692 35.8413C136.809 35.8413 136.905 35.8788 136.98 35.9537C137.059 36.0245 137.098 36.114 137.098 36.2222C137.098 36.3346 137.059 36.4304 136.98 36.5095C136.905 36.5844 136.809 36.6219 136.692 36.6219Z" fill="#112448"/>
<path d="M133.891 37.2275C134.211 37.2275 134.498 37.2983 134.752 37.4399C135.006 37.5814 135.204 37.7791 135.346 38.0331C135.491 38.287 135.564 38.5805 135.564 38.9136C135.564 39.2466 135.491 39.5422 135.346 39.8003C135.204 40.0543 135.006 40.252 134.752 40.3936C134.498 40.5351 134.211 40.6059 133.891 40.6059C133.653 40.6059 133.435 40.5601 133.235 40.4685C133.039 40.3769 132.873 40.2437 132.735 40.0688V41.7799H132.136V37.2588H132.71V37.7833C132.844 37.6001 133.012 37.4628 133.216 37.3712C133.42 37.2754 133.645 37.2275 133.891 37.2275ZM133.841 40.0813C134.053 40.0813 134.242 40.0335 134.409 39.9377C134.58 39.8378 134.713 39.7004 134.809 39.5256C134.908 39.3465 134.958 39.1426 134.958 38.9136C134.958 38.6846 134.908 38.4827 134.809 38.3079C134.713 38.1288 134.58 37.9915 134.409 37.8957C134.242 37.8 134.053 37.7521 133.841 37.7521C133.632 37.7521 133.443 37.802 133.272 37.902C133.106 37.9977 132.973 38.133 132.873 38.3079C132.777 38.4827 132.729 38.6846 132.729 38.9136C132.729 39.1426 132.777 39.3465 132.873 39.5256C132.968 39.7004 133.102 39.8378 133.272 39.9377C133.443 40.0335 133.632 40.0813 133.841 40.0813Z" fill="#112448"/>
<path d="M129.956 40.6059C129.686 40.6059 129.426 40.5705 129.176 40.4997C128.926 40.4248 128.73 40.3311 128.589 40.2187L128.839 39.7441C128.984 39.8482 129.161 39.9315 129.369 39.9939C129.577 40.0564 129.788 40.0876 130 40.0876C130.525 40.0876 130.787 39.9377 130.787 39.638C130.787 39.538 130.751 39.459 130.681 39.4007C130.61 39.3424 130.52 39.3008 130.412 39.2758C130.308 39.2466 130.158 39.2154 129.963 39.1821C129.696 39.1405 129.478 39.0926 129.307 39.0385C129.14 38.9844 128.997 38.8928 128.876 38.7637C128.755 38.6347 128.695 38.4536 128.695 38.2204C128.695 37.9207 128.82 37.6813 129.07 37.5023C129.319 37.3191 129.654 37.2275 130.075 37.2275C130.296 37.2275 130.516 37.2546 130.737 37.3087C130.958 37.3628 131.139 37.4357 131.28 37.5273L131.024 38.0019C130.754 37.827 130.435 37.7396 130.069 37.7396C129.815 37.7396 129.621 37.7812 129.488 37.8645C129.355 37.9478 129.288 38.0581 129.288 38.1955C129.288 38.3037 129.326 38.389 129.401 38.4515C129.475 38.5139 129.567 38.5597 129.675 38.5889C129.788 38.618 129.944 38.6513 130.144 38.6888C130.41 38.7346 130.624 38.7845 130.787 38.8387C130.953 38.8886 131.095 38.976 131.211 39.1009C131.328 39.2258 131.386 39.4007 131.386 39.6255C131.386 39.9252 131.257 40.1646 130.999 40.3436C130.745 40.5185 130.398 40.6059 129.956 40.6059Z" fill="#112448"/>
<path d="M126.461 40.6059C126.132 40.6059 125.836 40.533 125.574 40.3873C125.312 40.2416 125.106 40.0418 124.956 39.7878C124.81 39.5297 124.737 39.2383 124.737 38.9136C124.737 38.5889 124.81 38.2995 124.956 38.0456C125.106 37.7875 125.312 37.5876 125.574 37.4461C125.836 37.3004 126.132 37.2275 126.461 37.2275C126.79 37.2275 127.083 37.3004 127.341 37.4461C127.604 37.5876 127.808 37.7875 127.953 38.0456C128.103 38.2995 128.178 38.5889 128.178 38.9136C128.178 39.2383 128.103 39.5297 127.953 39.7878C127.808 40.0418 127.604 40.2416 127.341 40.3873C127.083 40.533 126.79 40.6059 126.461 40.6059ZM126.461 40.0813C126.673 40.0813 126.863 40.0335 127.029 39.9377C127.2 39.8378 127.333 39.7004 127.429 39.5256C127.524 39.3465 127.572 39.1426 127.572 38.9136C127.572 38.6846 127.524 38.4827 127.429 38.3079C127.333 38.1288 127.2 37.9915 127.029 37.8957C126.863 37.8 126.673 37.7521 126.461 37.7521C126.249 37.7521 126.057 37.8 125.886 37.8957C125.72 37.9915 125.587 38.1288 125.487 38.3079C125.391 38.4827 125.343 38.6846 125.343 38.9136C125.343 39.1426 125.391 39.3465 125.487 39.5256C125.587 39.7004 125.72 39.8378 125.886 39.9377C126.057 40.0335 126.249 40.0813 126.461 40.0813Z" fill="#112448"/>
<path d="M123.822 36.197V40.5683H123.198V38.6199H120.688V40.5683H120.063V36.197H120.688V38.0767H123.198V36.197H123.822Z" fill="#112448"/>
<path d="M117.309 36.3907C116.951 36.3907 116.772 36.5842 116.772 36.9714V37.2587H117.734V37.752H116.785V40.5683H116.185V37.752H115.623V37.2587H116.185V36.9652C116.185 36.6363 116.281 36.3761 116.472 36.1846C116.664 35.9931 116.932 35.8973 117.278 35.8973C117.411 35.8973 117.536 35.914 117.653 35.9473C117.769 35.9806 117.869 36.0285 117.952 36.0909L117.771 36.5468C117.634 36.4427 117.48 36.3907 117.309 36.3907Z" fill="#112448"/>
<path d="M113.551 40.6059C113.222 40.6059 112.927 40.533 112.664 40.3873C112.402 40.2416 112.196 40.0418 112.046 39.7878C111.9 39.5297 111.828 39.2383 111.828 38.9136C111.828 38.5889 111.9 38.2995 112.046 38.0456C112.196 37.7875 112.402 37.5876 112.664 37.4461C112.927 37.3004 113.222 37.2275 113.551 37.2275C113.88 37.2275 114.173 37.3004 114.432 37.4461C114.694 37.5876 114.898 37.7875 115.043 38.0456C115.193 38.2995 115.268 38.5889 115.268 38.9136C115.268 39.2383 115.193 39.5297 115.043 39.7878C114.898 40.0418 114.694 40.2416 114.432 40.3873C114.173 40.533 113.88 40.6059 113.551 40.6059ZM113.551 40.0813C113.763 40.0813 113.953 40.0335 114.119 39.9377C114.29 39.8378 114.423 39.7004 114.519 39.5256C114.615 39.3465 114.663 39.1426 114.663 38.9136C114.663 38.6846 114.615 38.4827 114.519 38.3079C114.423 38.1288 114.29 37.9915 114.119 37.8957C113.953 37.8 113.763 37.7521 113.551 37.7521C113.339 37.7521 113.147 37.8 112.977 37.8957C112.81 37.9915 112.677 38.1288 112.577 38.3079C112.481 38.4827 112.433 38.6846 112.433 38.9136C112.433 39.1426 112.481 39.3465 112.577 39.5256C112.677 39.7004 112.81 39.8378 112.977 39.9377C113.147 40.0335 113.339 40.0813 113.551 40.0813Z" fill="#112448"/>
<path d="M109.732 40.3747C109.644 40.4497 109.536 40.508 109.407 40.5496C109.278 40.5871 109.145 40.6058 109.007 40.6058C108.674 40.6058 108.416 40.5163 108.233 40.3373C108.05 40.1583 107.958 39.9022 107.958 39.5692V37.752H107.396V37.2587H107.958V36.5343H108.558V37.2587H109.507V37.752H108.558V39.5442C108.558 39.7232 108.602 39.8606 108.689 39.9564C108.781 40.0521 108.91 40.1 109.076 40.1C109.259 40.1 109.415 40.0479 109.545 39.9439L109.732 40.3747Z" fill="#112448"/>
<path d="M106.127 37.2588H106.726V40.5685H106.127V37.2588ZM106.426 36.6219C106.31 36.6219 106.212 36.5844 106.133 36.5095C106.058 36.4345 106.02 36.343 106.02 36.2347C106.02 36.1265 106.058 36.0349 106.133 35.96C106.212 35.8809 106.31 35.8413 106.426 35.8413C106.543 35.8413 106.639 35.8788 106.714 35.9537C106.793 36.0245 106.832 36.114 106.832 36.2222C106.832 36.3346 106.793 36.4304 106.714 36.5095C106.639 36.5844 106.543 36.6219 106.426 36.6219Z" fill="#112448"/>
<path d="M104.182 37.8145C104.286 37.623 104.441 37.4773 104.645 37.3774C104.849 37.2775 105.096 37.2275 105.388 37.2275V37.8083C105.354 37.8041 105.309 37.802 105.25 37.802C104.926 37.802 104.669 37.8999 104.482 38.0955C104.299 38.287 104.207 38.5618 104.207 38.9198V40.5684H103.608V37.2588H104.182V37.8145Z" fill="#112448"/>
<path d="M101.864 37.2588H102.463V40.5685H101.864V37.2588ZM102.164 36.6219C102.047 36.6219 101.949 36.5844 101.87 36.5095C101.795 36.4345 101.758 36.343 101.758 36.2347C101.758 36.1265 101.795 36.0349 101.87 35.96C101.949 35.8809 102.047 35.8413 102.164 35.8413C102.28 35.8413 102.376 35.8788 102.451 35.9537C102.53 36.0245 102.57 36.114 102.57 36.2222C102.57 36.3346 102.53 36.4304 102.451 36.5095C102.376 36.5844 102.28 36.6219 102.164 36.6219Z" fill="#112448"/>
<path d="M99.3623 37.2275C99.6828 37.2275 99.9701 37.2983 100.224 37.4399C100.478 37.5814 100.676 37.7791 100.817 38.0331C100.963 38.287 101.036 38.5805 101.036 38.9136C101.036 39.2466 100.963 39.5422 100.817 39.8003C100.676 40.0543 100.478 40.252 100.224 40.3936C99.9701 40.5351 99.6828 40.6059 99.3623 40.6059C99.125 40.6059 98.9064 40.5601 98.7066 40.4685C98.5109 40.3769 98.3444 40.2437 98.207 40.0688V41.7799H97.6075V37.2588H98.1821V37.7833C98.3153 37.6001 98.4839 37.4628 98.6879 37.3712C98.8919 37.2754 99.1167 37.2275 99.3623 37.2275ZM99.3123 40.0813C99.5246 40.0813 99.7141 40.0335 99.8806 39.9377C100.051 39.8378 100.184 39.7004 100.28 39.5256C100.38 39.3465 100.43 39.1426 100.43 38.9136C100.43 38.6846 100.38 38.4827 100.28 38.3079C100.184 38.1288 100.051 37.9915 99.8806 37.8957C99.7141 37.8 99.5246 37.7521 99.3123 37.7521C99.1042 37.7521 98.9148 37.802 98.7441 37.902C98.5775 37.9977 98.4443 38.133 98.3444 38.3079C98.2487 38.4827 98.2008 38.6846 98.2008 38.9136C98.2008 39.1426 98.2487 39.3465 98.3444 39.5256C98.4402 39.7004 98.5734 39.8378 98.7441 39.9377C98.9148 40.0335 99.1042 40.0813 99.3123 40.0813Z" fill="#112448"/>
<path d="M95.0902 40.6182C94.7613 40.6182 94.4428 40.5683 94.1348 40.4684C93.8308 40.3643 93.5915 40.2311 93.4166 40.0687L93.6477 39.5816C93.8142 39.7315 94.0265 39.8543 94.2846 39.9501C94.5469 40.0417 94.8154 40.0875 95.0902 40.0875C95.4524 40.0875 95.723 40.0271 95.902 39.9064C96.081 39.7815 96.1705 39.617 96.1705 39.413C96.1705 39.2632 96.1205 39.1424 96.0206 39.0508C95.9249 38.9551 95.8042 38.8822 95.6584 38.8323C95.5169 38.7823 95.315 38.7261 95.0527 38.6637C94.7238 38.5846 94.4574 38.5055 94.2534 38.4264C94.0536 38.3473 93.8808 38.2266 93.7351 38.0642C93.5936 37.8977 93.5228 37.6749 93.5228 37.396C93.5228 37.1629 93.5831 36.9527 93.7039 36.7653C93.8288 36.578 94.0161 36.4281 94.2659 36.3157C94.5157 36.2033 94.8258 36.1471 95.1963 36.1471C95.4545 36.1471 95.7084 36.1804 95.9582 36.247C96.208 36.3136 96.4224 36.4094 96.6014 36.5343L96.3953 37.0338C96.2121 36.9173 96.0165 36.8298 95.8083 36.7716C95.6002 36.7091 95.3962 36.6779 95.1963 36.6779C94.8425 36.6779 94.576 36.7424 94.397 36.8715C94.2222 37.0005 94.1348 37.167 94.1348 37.371C94.1348 37.5209 94.1847 37.6437 94.2846 37.7395C94.3845 37.8311 94.5074 37.9039 94.6531 37.958C94.8029 38.008 95.0048 38.0621 95.2588 38.1204C95.5877 38.1995 95.852 38.2786 96.0519 38.3577C96.2517 38.4368 96.4224 38.5575 96.5639 38.7199C96.7096 38.8822 96.7825 39.1008 96.7825 39.3756C96.7825 39.6045 96.72 39.8148 96.5951 40.0063C96.4702 40.1936 96.2808 40.3435 96.0269 40.4559C95.7729 40.5641 95.4607 40.6182 95.0902 40.6182Z" fill="#112448"/>
<path d="M91.2193 38.9323C91.2193 38.9781 91.2151 39.0385 91.2068 39.1134H88.5216C88.5591 39.4048 88.686 39.64 88.9025 39.8191C89.1232 39.9939 89.3959 40.0813 89.7206 40.0813C90.1161 40.0813 90.4345 39.9481 90.676 39.6817L91.007 40.0688C90.8571 40.2437 90.6698 40.3769 90.4449 40.4685C90.2243 40.5601 89.9766 40.6059 89.7018 40.6059C89.3521 40.6059 89.042 40.5351 88.7714 40.3936C88.5008 40.2479 88.2906 40.0459 88.1407 39.7878C87.995 39.5297 87.9221 39.2383 87.9221 38.9136C87.9221 38.593 87.9929 38.3037 88.1344 38.0456C88.2801 37.7875 88.4779 37.5876 88.7277 37.4461C88.9816 37.3004 89.2668 37.2275 89.5832 37.2275C89.8996 37.2275 90.1806 37.3004 90.4262 37.4461C90.676 37.5876 90.8696 37.7875 91.007 38.0456C91.1485 38.3037 91.2193 38.5993 91.2193 38.9323ZM89.5832 37.7334C89.2959 37.7334 89.0545 37.8208 88.8588 37.9956C88.6673 38.1705 88.5549 38.3994 88.5216 38.6825H90.6448C90.6115 38.4036 90.497 38.1767 90.3013 38.0019C90.1098 37.8229 89.8704 37.7334 89.5832 37.7334Z" fill="#112448"/>
<path d="M85.7267 37.2276C86.1472 37.2276 86.4802 37.3504 86.7258 37.596C86.9756 37.8375 87.1005 38.1934 87.1005 38.6638V40.5684H86.501V38.7325C86.501 38.412 86.424 38.1705 86.27 38.0082C86.116 37.8458 85.8953 37.7646 85.6081 37.7646C85.2833 37.7646 85.0273 37.8604 84.84 38.0519C84.6526 38.2392 84.559 38.5098 84.559 38.8637V40.5684H83.9595V35.9349H84.559V37.7271C84.6838 37.5689 84.8462 37.4461 85.046 37.3587C85.25 37.2713 85.4769 37.2276 85.7267 37.2276Z" fill="#112448"/>
<path d="M81.2498 36.7403H79.7511V36.197H83.3667V36.7403H81.868V40.5683H81.2498V36.7403Z" fill="#112448"/>
<path d="M77.4719 37.2588V40.1188C77.4719 40.6975 77.3283 41.1242 77.041 41.3989C76.7538 41.6779 76.325 41.8173 75.7546 41.8173C75.4424 41.8173 75.1447 41.7736 74.8616 41.6862C74.5785 41.6029 74.3496 41.4822 74.1747 41.324L74.462 40.8619C74.616 40.9951 74.8054 41.0992 75.0302 41.1741C75.2592 41.2532 75.4944 41.2928 75.7359 41.2928C76.1231 41.2928 76.4082 41.2012 76.5914 41.018C76.7787 40.8348 76.8724 40.5559 76.8724 40.1812V39.919C76.7309 40.0897 76.556 40.2187 76.3479 40.3061C76.1439 40.3894 75.9211 40.431 75.6797 40.431C75.3633 40.431 75.076 40.3644 74.8179 40.2312C74.564 40.0938 74.3641 39.9044 74.2184 39.6629C74.0727 39.4173 73.9999 39.1384 73.9999 38.8262C73.9999 38.5139 74.0727 38.2371 74.2184 37.9956C74.3641 37.75 74.564 37.5606 74.8179 37.4274C75.076 37.2941 75.3633 37.2275 75.6797 37.2275C75.9295 37.2275 76.1605 37.2733 76.3728 37.3649C76.5893 37.4565 76.7662 37.5918 76.9036 37.7708V37.2588H77.4719ZM75.7484 39.9065C75.9649 39.9065 76.1584 39.8607 76.3291 39.7691C76.504 39.6775 76.6393 39.5505 76.735 39.3882C76.8349 39.2217 76.8849 39.0343 76.8849 38.8262C76.8849 38.5056 76.7787 38.2475 76.5664 38.0518C76.3541 37.852 76.0814 37.7521 75.7484 37.7521C75.4112 37.7521 75.1364 37.852 74.9241 38.0518C74.7118 38.2475 74.6056 38.5056 74.6056 38.8262C74.6056 39.0343 74.6535 39.2217 74.7492 39.3882C74.8491 39.5505 74.9844 39.6775 75.1551 39.7691C75.33 39.8607 75.5277 39.9065 75.7484 39.9065Z" fill="#112448"/>
<path d="M71.8048 37.2275C72.2253 37.2275 72.5583 37.3504 72.804 37.596C73.0538 37.8374 73.1786 38.1934 73.1786 38.6638V40.5684H72.5792V38.7325C72.5792 38.4119 72.5021 38.1705 72.3481 38.0081C72.1941 37.8458 71.9734 37.7646 71.6862 37.7646C71.3615 37.7646 71.1054 37.8603 70.9181 38.0518C70.7308 38.2392 70.6371 38.5098 70.6371 38.8636V40.5684H70.0376V37.2588H70.6121V37.7583C70.7328 37.5876 70.8952 37.4565 71.0992 37.3649C71.3073 37.2733 71.5426 37.2275 71.8048 37.2275Z" fill="#112448"/>
<path d="M68.2928 37.2588H68.8923V40.5685H68.2928V37.2588ZM68.5925 36.6219C68.476 36.6219 68.3781 36.5844 68.299 36.5095C68.2241 36.4345 68.1866 36.343 68.1866 36.2347C68.1866 36.1265 68.2241 36.0349 68.299 35.96C68.3781 35.8809 68.476 35.8413 68.5925 35.8413C68.7091 35.8413 68.8049 35.8788 68.8798 35.9537C68.9589 36.0245 68.9984 36.114 68.9984 36.2222C68.9984 36.3346 68.9589 36.4304 68.8798 36.5095C68.8049 36.5844 68.7091 36.6219 68.5925 36.6219Z" fill="#112448"/>
<path d="M66.349 37.8145C66.4531 37.623 66.6072 37.4773 66.8111 37.3774C67.0151 37.2775 67.2628 37.2275 67.5543 37.2275V37.8083C67.5209 37.8041 67.4752 37.802 67.4169 37.802C67.0922 37.802 66.8361 37.8999 66.6488 38.0955C66.4656 38.287 66.374 38.5618 66.374 38.9198V40.5684H65.7745V37.2588H66.349V37.8145Z" fill="#112448"/>
<path d="M64.6335 37.2587V40.5683H64.0653V40.0687C63.9445 40.2394 63.7843 40.3727 63.5844 40.4684C63.3888 40.56 63.1744 40.6058 62.9412 40.6058C62.4999 40.6058 62.1523 40.4851 61.8984 40.2436C61.6444 39.998 61.5175 39.6379 61.5175 39.1633V37.2587H62.1169V39.0946C62.1169 39.4151 62.194 39.6587 62.348 39.8252C62.502 39.9876 62.7227 40.0687 63.0099 40.0687C63.3263 40.0687 63.5761 39.973 63.7593 39.7815C63.9425 39.59 64.034 39.3194 64.034 38.9697V37.2587H64.6335Z" fill="#112448"/>
<path d="M60.8236 40.3747C60.7362 40.4497 60.628 40.508 60.4989 40.5496C60.3699 40.5871 60.2367 40.6058 60.0993 40.6058C59.7662 40.6058 59.5081 40.5163 59.3249 40.3373C59.1418 40.1583 59.0502 39.9022 59.0502 39.5692V37.752H58.4882V37.2587H59.0502V36.5343H59.6497V37.2587H60.5988V37.752H59.6497V39.5442C59.6497 39.7232 59.6934 39.8606 59.7808 39.9564C59.8724 40.0521 60.0014 40.1 60.168 40.1C60.3511 40.1 60.5073 40.0479 60.6363 39.9439L60.8236 40.3747Z" fill="#112448"/>
<path d="M56.8843 37.8145C56.9884 37.623 57.1424 37.4773 57.3464 37.3774C57.5504 37.2775 57.7981 37.2275 58.0895 37.2275V37.8083C58.0562 37.8041 58.0104 37.802 57.9522 37.802C57.6274 37.802 57.3714 37.8999 57.1841 38.0955C57.0009 38.287 56.9093 38.5618 56.9093 38.9198V40.5684H56.3098V37.2588H56.8843V37.8145Z" fill="#112448"/>
<path d="M55.1686 37.2587V40.5683H54.6003V40.0687C54.4796 40.2394 54.3193 40.3727 54.1195 40.4684C53.9238 40.56 53.7094 40.6058 53.4763 40.6058C53.035 40.6058 52.6874 40.4851 52.4334 40.2436C52.1795 39.998 52.0525 39.6379 52.0525 39.1633V37.2587H52.652V39.0946C52.652 39.4151 52.729 39.6587 52.883 39.8252C53.0371 39.9876 53.2577 40.0687 53.545 40.0687C53.8613 40.0687 54.1111 39.973 54.2943 39.7815C54.4775 39.59 54.5691 39.3194 54.5691 38.9697V37.2587H55.1686Z" fill="#112448"/>
<path d="M50.863 36.197V40.5683H50.351L47.7282 37.3086V40.5683H47.1038V36.197H47.6158L50.2386 39.4567V36.197H50.863Z" fill="#112448"/>
</svg>
