<svg width="160" height="165" viewBox="0 0 160 165" fill="none" xmlns="http://www.w3.org/2000/svg">
<path d="M151.823 142.263V149.015H148.27V142.318L140.753 129.881H144.553L150.156 139.202L155.814 129.881H159.313L151.823 142.263Z" fill="white"/>
<path d="M136.652 144.587H127.086L125.2 149.015H121.537L130.147 129.881H133.646L142.283 149.015H138.566L136.652 144.587ZM135.477 141.799L131.869 133.435L128.288 141.799H135.477Z" fill="white"/>
<path d="M121.962 129.881L115.621 149.015H111.849L107.12 134.856L102.309 149.015H98.5102L92.1688 129.881H95.8588L100.615 144.423L105.562 129.881H108.842L113.68 144.505L118.573 129.881H121.962Z" fill="white"/>
<path d="M85.4053 129.881H88.9586V149.015H85.4053V129.881Z" fill="white"/>
<path d="M73.7115 129.881C75.3697 129.881 76.8093 130.155 78.0301 130.701C79.2693 131.248 80.2168 132.032 80.8728 133.052C81.5288 134.072 81.8568 135.284 81.8568 136.687C81.8568 138.072 81.5288 139.284 80.8728 140.323C80.2168 141.343 79.2693 142.127 78.0301 142.673C76.8093 143.22 75.3697 143.493 73.7115 143.493H69.3928V149.015H65.8395V129.881H73.7115ZM73.5475 140.487C75.0964 140.487 76.2717 140.159 77.0735 139.503C77.8753 138.847 78.2761 137.908 78.2761 136.687C78.2761 135.466 77.8753 134.528 77.0735 133.872C76.2717 133.216 75.0964 132.888 73.5475 132.888H69.3928V140.487H73.5475Z" fill="white"/>
<path d="M54.5805 149.288C53.1045 149.288 51.6741 149.078 50.2892 148.659C48.9225 148.24 47.8383 147.684 47.0365 146.992L48.2665 144.231C49.0501 144.851 50.0067 145.361 51.1365 145.762C52.2845 146.145 53.4325 146.336 54.5805 146.336C56.0018 146.336 57.0587 146.108 57.7512 145.653C58.4618 145.197 58.8172 144.596 58.8172 143.849C58.8172 143.302 58.6167 142.855 58.2158 142.509C57.8332 142.145 57.3412 141.862 56.7398 141.662C56.1385 141.461 55.3185 141.234 54.2798 140.979C52.8221 140.632 51.6376 140.286 50.7265 139.94C49.8336 139.594 49.0592 139.056 48.4032 138.327C47.7654 137.58 47.4465 136.578 47.4465 135.321C47.4465 134.264 47.7289 133.307 48.2938 132.451C48.8769 131.576 49.7425 130.883 50.8905 130.373C52.0567 129.863 53.4781 129.608 55.1545 129.608C56.3207 129.608 57.4687 129.754 58.5985 130.045C59.7283 130.337 60.7032 130.756 61.5232 131.303L60.4025 134.063C59.5643 133.571 58.6896 133.198 57.7785 132.943C56.8674 132.687 55.9836 132.56 55.1272 132.56C53.7241 132.56 52.6763 132.797 51.9838 133.271C51.3096 133.744 50.9725 134.373 50.9725 135.157C50.9725 135.703 51.1638 136.15 51.5465 136.496C51.9474 136.842 52.4485 137.115 53.0498 137.316C53.6512 137.516 54.4712 137.744 55.5098 137.999C56.9312 138.327 58.0974 138.673 59.0085 139.038C59.9196 139.384 60.6941 139.922 61.3318 140.651C61.9878 141.379 62.3158 142.363 62.3158 143.603C62.3158 144.659 62.0243 145.616 61.4412 146.473C60.8763 147.329 60.0107 148.012 58.8445 148.523C57.6783 149.033 56.2569 149.288 54.5805 149.288Z" fill="white"/>
<path d="M34.5781 149.288C32.6283 149.288 30.8699 148.869 29.3028 148.031C27.7357 147.174 26.5057 145.999 25.6128 144.505C24.7199 142.992 24.2734 141.307 24.2734 139.448C24.2734 137.589 24.7199 135.913 25.6128 134.419C26.5057 132.906 27.7357 131.731 29.3028 130.893C30.8699 130.036 32.6283 129.608 34.5781 129.608C36.5279 129.608 38.2863 130.036 39.8534 130.893C41.4205 131.731 42.6505 132.897 43.5434 134.391C44.4363 135.885 44.8828 137.571 44.8828 139.448C44.8828 141.325 44.4363 143.01 43.5434 144.505C42.6505 145.999 41.4205 147.174 39.8534 148.031C38.2863 148.869 36.5279 149.288 34.5781 149.288ZM34.5781 146.172C35.8537 146.172 37.0017 145.889 38.0221 145.325C39.0426 144.741 39.8443 143.94 40.4274 142.919C41.0105 141.881 41.3021 140.723 41.3021 139.448C41.3021 138.172 41.0105 137.024 40.4274 136.004C39.8443 134.965 39.0426 134.163 38.0221 133.599C37.0017 133.015 35.8537 132.724 34.5781 132.724C33.3025 132.724 32.1545 133.015 31.1341 133.599C30.1137 134.163 29.3119 134.965 28.7288 136.004C28.1457 137.024 27.8541 138.172 27.8541 139.448C27.8541 140.723 28.1457 141.881 28.7288 142.919C29.3119 143.94 30.1137 144.741 31.1341 145.325C32.1545 145.889 33.3025 146.172 34.5781 146.172Z" fill="white"/>
<path d="M20.5133 129.881V149.015H16.96V140.815H7.0653V149.015H3.51196V129.881H7.0653V137.781H16.96V129.881H20.5133Z" fill="white"/>
<path d="M12.5951 157.034V162.972H11.8995L8.33674 158.544V162.972H7.48847V157.034H8.18405L11.7468 161.462V157.034H12.5951ZM18.4441 158.476V162.972H17.6722V162.294C17.5082 162.525 17.2905 162.706 17.019 162.836C16.7533 162.961 16.462 163.023 16.1453 163.023C15.5459 163.023 15.0737 162.859 14.7287 162.531C14.3837 162.197 14.2113 161.708 14.2113 161.064V158.476H15.0256V160.97C15.0256 161.406 15.1302 161.737 15.3395 161.963C15.5487 162.183 15.8484 162.294 16.2386 162.294C16.6684 162.294 17.0077 162.163 17.2566 161.903C17.5054 161.643 17.6298 161.276 17.6298 160.801V158.476H18.4441ZM20.7749 159.231C20.9162 158.971 21.1255 158.773 21.4026 158.637C21.6797 158.502 22.0162 158.434 22.412 158.434V159.223C22.3668 159.217 22.3046 159.214 22.2254 159.214C21.7843 159.214 21.4365 159.347 21.182 159.613C20.9332 159.873 20.8088 160.246 20.8088 160.733V162.972H19.9944V158.476H20.7749V159.231ZM26.1258 162.709C26.0071 162.811 25.86 162.89 25.6847 162.947C25.5094 162.998 25.3284 163.023 25.1418 163.023C24.6894 163.023 24.3388 162.901 24.09 162.658C23.8411 162.415 23.7167 162.067 23.7167 161.615V159.146H22.9533V158.476H23.7167V157.492H24.5311V158.476H25.8204V159.146H24.5311V161.581C24.5311 161.824 24.5904 162.011 24.7092 162.141C24.8336 162.271 25.0089 162.336 25.2351 162.336C25.484 162.336 25.696 162.265 25.8713 162.124L26.1258 162.709ZM31.3008 158.476V162.972H30.5289V162.294C30.3649 162.525 30.1472 162.706 29.8757 162.836C29.6099 162.961 29.3187 163.023 29.002 163.023C28.4026 163.023 27.9303 162.859 27.5854 162.531C27.2404 162.197 27.0679 161.708 27.0679 161.064V158.476H27.8823V160.97C27.8823 161.406 27.9869 161.737 28.1961 161.963C28.4054 162.183 28.7051 162.294 29.0953 162.294C29.5251 162.294 29.8644 162.163 30.1132 161.903C30.3621 161.643 30.4865 161.276 30.4865 160.801V158.476H31.3008ZM33.6315 159.231C33.7729 158.971 33.9822 158.773 34.2593 158.637C34.5364 158.502 34.8728 158.434 35.2687 158.434V159.223C35.2235 159.217 35.1613 159.214 35.0821 159.214C34.641 159.214 34.2932 159.347 34.0387 159.613C33.7899 159.873 33.6655 160.246 33.6655 160.733V162.972H32.8511V158.476H33.6315V159.231ZM36.2724 158.476H37.0867V162.972H36.2724V158.476ZM36.6796 157.611C36.5212 157.611 36.3883 157.56 36.2809 157.458C36.1791 157.357 36.1282 157.232 36.1282 157.085C36.1282 156.938 36.1791 156.814 36.2809 156.712C36.3883 156.604 36.5212 156.551 36.6796 156.551C36.8379 156.551 36.968 156.602 37.0698 156.703C37.1772 156.8 37.2309 156.921 37.2309 157.068C37.2309 157.221 37.1772 157.351 37.0698 157.458C36.968 157.56 36.8379 157.611 36.6796 157.611ZM41.0422 158.434C41.6134 158.434 42.0658 158.601 42.3995 158.934C42.7388 159.262 42.9084 159.746 42.9084 160.385V162.972H42.0941V160.478C42.0941 160.043 41.9895 159.715 41.7802 159.494C41.571 159.274 41.2713 159.163 40.881 159.163C40.4399 159.163 40.0921 159.293 39.8377 159.554C39.5832 159.808 39.4559 160.176 39.4559 160.656V162.972H38.6416V158.476H39.422V159.155C39.586 158.923 39.8066 158.745 40.0837 158.621C40.3664 158.496 40.6859 158.434 41.0422 158.434ZM48.7411 158.476V162.361C48.7411 163.147 48.546 163.727 48.1558 164.1C47.7656 164.479 47.1831 164.669 46.4084 164.669C45.9842 164.669 45.5799 164.609 45.1953 164.491C44.8108 164.377 44.4997 164.213 44.2622 163.999L44.6524 163.371C44.8617 163.552 45.119 163.693 45.4244 163.795C45.7354 163.902 46.0549 163.956 46.3829 163.956C46.9088 163.956 47.2962 163.832 47.545 163.583C47.7995 163.334 47.9268 162.955 47.9268 162.446V162.09C47.7345 162.322 47.497 162.497 47.2142 162.616C46.9371 162.729 46.6346 162.786 46.3066 162.786C45.8768 162.786 45.4866 162.695 45.1359 162.514C44.791 162.327 44.5195 162.07 44.3216 161.742C44.1237 161.409 44.0247 161.03 44.0247 160.605C44.0247 160.181 44.1237 159.805 44.3216 159.477C44.5195 159.144 44.791 158.886 45.1359 158.705C45.4866 158.524 45.8768 158.434 46.3066 158.434C46.6459 158.434 46.9597 158.496 47.2482 158.621C47.5422 158.745 47.7826 158.929 47.9692 159.172V158.476H48.7411ZM46.3999 162.073C46.6939 162.073 46.9569 162.011 47.1888 161.886C47.4263 161.762 47.6101 161.589 47.7402 161.369C47.8759 161.143 47.9437 160.888 47.9437 160.605C47.9437 160.17 47.7995 159.819 47.5111 159.554C47.2227 159.282 46.8523 159.146 46.3999 159.146C45.9418 159.146 45.5686 159.282 45.2802 159.554C44.9917 159.819 44.8475 160.17 44.8475 160.605C44.8475 160.888 44.9126 161.143 45.0426 161.369C45.1784 161.589 45.3622 161.762 45.594 161.886C45.8315 162.011 46.1002 162.073 46.3999 162.073ZM53.8731 157.772H51.8372V157.034H56.7487V157.772H54.7128V162.972H53.8731V157.772ZM59.9545 158.434C60.5256 158.434 60.978 158.601 61.3117 158.934C61.651 159.262 61.8207 159.746 61.8207 160.385V162.972H61.0063V160.478C61.0063 160.043 60.9017 159.715 60.6925 159.494C60.4832 159.274 60.1835 159.163 59.7933 159.163C59.3522 159.163 59.0044 159.293 58.7499 159.554C58.4954 159.808 58.3682 160.176 58.3682 160.656V162.972H57.5538V156.678H58.3682V159.113C58.5378 158.898 58.7584 158.731 59.0298 158.612C59.3069 158.493 59.6152 158.434 59.9545 158.434ZM67.4158 160.75C67.4158 160.812 67.4102 160.894 67.3989 160.996H63.7513C63.8022 161.392 63.9747 161.711 64.2687 161.954C64.5685 162.192 64.9389 162.311 65.38 162.311C65.9172 162.311 66.3498 162.13 66.6778 161.768L67.1274 162.294C66.9238 162.531 66.6694 162.712 66.364 162.836C66.0643 162.961 65.7278 163.023 65.3545 163.023C64.8795 163.023 64.4582 162.927 64.0906 162.735C63.723 162.537 63.4374 162.262 63.2338 161.912C63.0359 161.561 62.9369 161.165 62.9369 160.724C62.9369 160.289 63.0331 159.896 63.2254 159.545C63.4233 159.195 63.6919 158.923 64.0312 158.731C64.3762 158.533 64.7636 158.434 65.1934 158.434C65.6232 158.434 66.0049 158.533 66.3385 158.731C66.6778 158.923 66.9408 159.195 67.1274 159.545C67.3197 159.896 67.4158 160.297 67.4158 160.75ZM65.1934 159.121C64.8032 159.121 64.4752 159.24 64.2094 159.477C63.9492 159.715 63.7965 160.026 63.7513 160.41H66.6354C66.5902 160.031 66.4347 159.723 66.1689 159.486C65.9087 159.243 65.5836 159.121 65.1934 159.121ZM72.674 163.04C72.2272 163.04 71.7946 162.972 71.3761 162.836C70.9633 162.695 70.6381 162.514 70.4006 162.294L70.7144 161.632C70.9406 161.835 71.2291 162.002 71.5797 162.132C71.936 162.257 72.3007 162.319 72.674 162.319C73.166 162.319 73.5335 162.237 73.7767 162.073C74.0199 161.903 74.1415 161.68 74.1415 161.403C74.1415 161.199 74.0736 161.035 73.9379 160.911C73.8078 160.781 73.6438 160.682 73.4459 160.614C73.2536 160.546 72.9793 160.47 72.6231 160.385C72.1763 160.277 71.8144 160.17 71.5373 160.063C71.2658 159.955 71.0311 159.791 70.8332 159.571C70.6409 159.344 70.5448 159.042 70.5448 158.663C70.5448 158.346 70.6268 158.061 70.7908 157.806C70.9604 157.552 71.2149 157.348 71.5542 157.195C71.8935 157.043 72.3149 156.966 72.8182 156.966C73.1688 156.966 73.5138 157.012 73.8531 157.102C74.1924 157.193 74.4836 157.323 74.7268 157.492L74.4469 158.171C74.198 158.013 73.9322 157.894 73.6495 157.815C73.3667 157.73 73.0896 157.687 72.8182 157.687C72.3375 157.687 71.9755 157.775 71.7324 157.95C71.4949 158.126 71.3761 158.352 71.3761 158.629C71.3761 158.833 71.444 158.999 71.5797 159.129C71.7154 159.254 71.8822 159.353 72.0802 159.426C72.2838 159.494 72.558 159.568 72.903 159.647C73.3498 159.754 73.7089 159.862 73.9803 159.969C74.2518 160.077 74.4836 160.241 74.6759 160.461C74.8738 160.682 74.9728 160.979 74.9728 161.352C74.9728 161.663 74.888 161.949 74.7183 162.209C74.5487 162.463 74.2913 162.667 73.9464 162.819C73.6014 162.967 73.1773 163.04 72.674 163.04ZM78.477 158.434C78.9124 158.434 79.3026 158.53 79.6476 158.722C79.9925 158.915 80.2612 159.183 80.4534 159.528C80.6514 159.873 80.7503 160.272 80.7503 160.724C80.7503 161.177 80.6514 161.578 80.4534 161.929C80.2612 162.274 79.9925 162.542 79.6476 162.735C79.3026 162.927 78.9124 163.023 78.477 163.023C78.1546 163.023 77.8577 162.961 77.5863 162.836C77.3205 162.712 77.0943 162.531 76.9076 162.294V164.618H76.0933V158.476H76.8737V159.189C77.0547 158.94 77.2837 158.753 77.5608 158.629C77.8379 158.499 78.1433 158.434 78.477 158.434ZM78.4091 162.311C78.6975 162.311 78.9548 162.245 79.181 162.115C79.4129 161.98 79.5939 161.793 79.7239 161.556C79.8596 161.312 79.9275 161.035 79.9275 160.724C79.9275 160.413 79.8596 160.139 79.7239 159.901C79.5939 159.658 79.4129 159.472 79.181 159.342C78.9548 159.211 78.6975 159.146 78.4091 159.146C78.1263 159.146 77.869 159.214 77.6372 159.35C77.411 159.48 77.23 159.664 77.0943 159.901C76.9642 160.139 76.8992 160.413 76.8992 160.724C76.8992 161.035 76.9642 161.312 77.0943 161.556C77.2243 161.793 77.4053 161.98 77.6372 162.115C77.869 162.245 78.1263 162.311 78.4091 162.311ZM81.8755 158.476H82.6898V162.972H81.8755V158.476ZM82.2827 157.611C82.1243 157.611 81.9914 157.56 81.884 157.458C81.7822 157.357 81.7313 157.232 81.7313 157.085C81.7313 156.938 81.7822 156.814 81.884 156.712C81.9914 156.604 82.1243 156.551 82.2827 156.551C82.441 156.551 82.5711 156.602 82.6729 156.703C82.7803 156.8 82.8341 156.921 82.8341 157.068C82.8341 157.221 82.7803 157.351 82.6729 157.458C82.5711 157.56 82.441 157.611 82.2827 157.611ZM85.0251 159.231C85.1665 158.971 85.3757 158.773 85.6528 158.637C85.93 158.502 86.2664 158.434 86.6623 158.434V159.223C86.6171 159.217 86.5548 159.214 86.4757 159.214C86.0346 159.214 85.6868 159.347 85.4323 159.613C85.1835 159.873 85.0591 160.246 85.0591 160.733V162.972H84.2447V158.476H85.0251V159.231ZM87.666 158.476H88.4803V162.972H87.666V158.476ZM88.0731 157.611C87.9148 157.611 87.7819 157.56 87.6745 157.458C87.5727 157.357 87.5218 157.232 87.5218 157.085C87.5218 156.938 87.5727 156.814 87.6745 156.712C87.7819 156.604 87.9148 156.551 88.0731 156.551C88.2315 156.551 88.3616 156.602 88.4634 156.703C88.5708 156.8 88.6245 156.921 88.6245 157.068C88.6245 157.221 88.5708 157.351 88.4634 157.458C88.3616 157.56 88.2315 157.611 88.0731 157.611ZM92.563 162.709C92.4443 162.811 92.2973 162.89 92.1219 162.947C91.9466 162.998 91.7657 163.023 91.579 163.023C91.1266 163.023 90.776 162.901 90.5272 162.658C90.2784 162.415 90.1539 162.067 90.1539 161.615V159.146H89.3905V158.476H90.1539V157.492H90.9683V158.476H92.2577V159.146H90.9683V161.581C90.9683 161.824 91.0277 162.011 91.1464 162.141C91.2708 162.271 91.4461 162.336 91.6724 162.336C91.9212 162.336 92.1333 162.265 92.3086 162.124L92.563 162.709ZM97.7513 163.023C97.3045 163.023 96.903 162.924 96.5467 162.726C96.1904 162.528 95.9105 162.257 95.7069 161.912C95.509 161.561 95.41 161.165 95.41 160.724C95.41 160.283 95.509 159.89 95.7069 159.545C95.9105 159.195 96.1904 158.923 96.5467 158.731C96.903 158.533 97.3045 158.434 97.7513 158.434C98.198 158.434 98.5967 158.533 98.9473 158.731C99.3036 158.923 99.5807 159.195 99.7786 159.545C99.9822 159.89 100.084 160.283 100.084 160.724C100.084 161.165 99.9822 161.561 99.7786 161.912C99.5807 162.257 99.3036 162.528 98.9473 162.726C98.5967 162.924 98.198 163.023 97.7513 163.023ZM97.7513 162.311C98.0397 162.311 98.297 162.245 98.5232 162.115C98.755 161.98 98.936 161.793 99.0661 161.556C99.1961 161.312 99.2612 161.035 99.2612 160.724C99.2612 160.413 99.1961 160.139 99.0661 159.901C98.936 159.658 98.755 159.472 98.5232 159.342C98.297 159.211 98.0397 159.146 97.7513 159.146C97.4628 159.146 97.2027 159.211 96.9708 159.342C96.7446 159.472 96.5637 159.658 96.4279 159.901C96.2979 160.139 96.2328 160.413 96.2328 160.724C96.2328 161.035 96.2979 161.312 96.4279 161.556C96.5637 161.793 96.7446 161.98 96.9708 162.115C97.2027 162.245 97.4628 162.311 97.7513 162.311ZM102.856 157.297C102.37 157.297 102.126 157.56 102.126 158.086V158.476H103.433V159.146H102.143V162.972H101.329V159.146H100.566V158.476H101.329V158.078C101.329 157.631 101.459 157.277 101.719 157.017C101.979 156.757 102.344 156.627 102.813 156.627C102.994 156.627 103.164 156.65 103.322 156.695C103.481 156.74 103.617 156.805 103.73 156.89L103.484 157.509C103.297 157.368 103.088 157.297 102.856 157.297ZM111.704 157.034V162.972H110.856V160.326H107.446V162.972H106.598V157.034H107.446V159.588H110.856V157.034H111.704ZM115.288 163.023C114.842 163.023 114.44 162.924 114.084 162.726C113.728 162.528 113.448 162.257 113.244 161.912C113.046 161.561 112.947 161.165 112.947 160.724C112.947 160.283 113.046 159.89 113.244 159.545C113.448 159.195 113.728 158.923 114.084 158.731C114.44 158.533 114.842 158.434 115.288 158.434C115.735 158.434 116.134 158.533 116.484 158.731C116.841 158.923 117.118 159.195 117.316 159.545C117.519 159.89 117.621 160.283 117.621 160.724C117.621 161.165 117.519 161.561 117.316 161.912C117.118 162.257 116.841 162.528 116.484 162.726C116.134 162.924 115.735 163.023 115.288 163.023ZM115.288 162.311C115.577 162.311 115.834 162.245 116.06 162.115C116.292 161.98 116.473 161.793 116.603 161.556C116.733 161.312 116.798 161.035 116.798 160.724C116.798 160.413 116.733 160.139 116.603 159.901C116.473 159.658 116.292 159.472 116.06 159.342C115.834 159.211 115.577 159.146 115.288 159.146C115 159.146 114.74 159.211 114.508 159.342C114.282 159.472 114.101 159.658 113.965 159.901C113.835 160.139 113.77 160.413 113.77 160.724C113.77 161.035 113.835 161.312 113.965 161.556C114.101 161.793 114.282 161.98 114.508 162.115C114.74 162.245 115 162.311 115.288 162.311ZM120.037 163.023C119.669 163.023 119.316 162.975 118.976 162.879C118.637 162.777 118.371 162.65 118.179 162.497L118.518 161.852C118.716 161.994 118.957 162.107 119.239 162.192C119.522 162.277 119.808 162.319 120.096 162.319C120.809 162.319 121.165 162.115 121.165 161.708C121.165 161.573 121.117 161.465 121.021 161.386C120.925 161.307 120.803 161.25 120.656 161.216C120.515 161.177 120.311 161.134 120.045 161.089C119.683 161.032 119.386 160.967 119.155 160.894C118.928 160.82 118.733 160.696 118.569 160.521C118.405 160.345 118.323 160.099 118.323 159.783C118.323 159.375 118.493 159.05 118.832 158.807C119.171 158.558 119.627 158.434 120.198 158.434C120.498 158.434 120.797 158.471 121.097 158.544C121.397 158.618 121.643 158.717 121.835 158.841L121.487 159.486C121.12 159.248 120.687 159.129 120.189 159.129C119.844 159.129 119.581 159.186 119.401 159.299C119.22 159.412 119.129 159.562 119.129 159.749C119.129 159.896 119.18 160.012 119.282 160.097C119.384 160.181 119.508 160.244 119.655 160.283C119.808 160.323 120.02 160.368 120.291 160.419C120.653 160.481 120.944 160.549 121.165 160.622C121.391 160.69 121.583 160.809 121.742 160.979C121.9 161.148 121.979 161.386 121.979 161.691C121.979 162.098 121.804 162.424 121.453 162.667C121.108 162.904 120.636 163.023 120.037 163.023ZM125.381 158.434C125.816 158.434 126.206 158.53 126.551 158.722C126.896 158.915 127.165 159.183 127.357 159.528C127.555 159.873 127.654 160.272 127.654 160.724C127.654 161.177 127.555 161.578 127.357 161.929C127.165 162.274 126.896 162.542 126.551 162.735C126.206 162.927 125.816 163.023 125.381 163.023C125.058 163.023 124.761 162.961 124.49 162.836C124.224 162.712 123.998 162.531 123.811 162.294V164.618H122.997V158.476H123.777V159.189C123.958 158.94 124.187 158.753 124.465 158.629C124.742 158.499 125.047 158.434 125.381 158.434ZM125.313 162.311C125.601 162.311 125.859 162.245 126.085 162.115C126.317 161.98 126.498 161.793 126.628 161.556C126.763 161.312 126.831 161.035 126.831 160.724C126.831 160.413 126.763 160.139 126.628 159.901C126.498 159.658 126.317 159.472 126.085 159.342C125.859 159.211 125.601 159.146 125.313 159.146C125.03 159.146 124.773 159.214 124.541 159.35C124.315 159.48 124.134 159.664 123.998 159.901C123.868 160.139 123.803 160.413 123.803 160.724C123.803 161.035 123.868 161.312 123.998 161.556C124.128 161.793 124.309 161.98 124.541 162.115C124.773 162.245 125.03 162.311 125.313 162.311ZM128.779 158.476H129.594V162.972H128.779V158.476ZM129.186 157.611C129.028 157.611 128.895 157.56 128.788 157.458C128.686 157.357 128.635 157.232 128.635 157.085C128.635 156.938 128.686 156.814 128.788 156.712C128.895 156.604 129.028 156.551 129.186 156.551C129.345 156.551 129.475 156.602 129.577 156.703C129.684 156.8 129.738 156.921 129.738 157.068C129.738 157.221 129.684 157.351 129.577 157.458C129.475 157.56 129.345 157.611 129.186 157.611ZM133.676 162.709C133.557 162.811 133.41 162.89 133.235 162.947C133.06 162.998 132.879 163.023 132.692 163.023C132.24 163.023 131.889 162.901 131.64 162.658C131.392 162.415 131.267 162.067 131.267 161.615V159.146H130.504V158.476H131.267V157.492H132.081V158.476H133.371V159.146H132.081V161.581C132.081 161.824 132.141 162.011 132.26 162.141C132.384 162.271 132.559 162.336 132.786 162.336C133.034 162.336 133.246 162.265 133.422 162.124L133.676 162.709ZM136.298 158.434C136.92 158.434 137.395 158.587 137.723 158.892C138.057 159.197 138.224 159.653 138.224 160.258V162.972H137.452V162.378C137.316 162.588 137.121 162.749 136.866 162.862C136.617 162.969 136.321 163.023 135.976 163.023C135.472 163.023 135.068 162.901 134.763 162.658C134.463 162.415 134.313 162.096 134.313 161.7C134.313 161.304 134.457 160.987 134.746 160.75C135.034 160.507 135.492 160.385 136.12 160.385H137.409V160.224C137.409 159.873 137.307 159.605 137.104 159.418C136.9 159.231 136.601 159.138 136.205 159.138C135.939 159.138 135.679 159.183 135.424 159.274C135.17 159.359 134.955 159.474 134.78 159.621L134.44 159.011C134.672 158.824 134.949 158.683 135.272 158.587C135.594 158.485 135.936 158.434 136.298 158.434ZM136.111 162.395C136.422 162.395 136.691 162.327 136.917 162.192C137.143 162.05 137.307 161.852 137.409 161.598V160.97H136.154C135.464 160.97 135.119 161.202 135.119 161.666C135.119 161.892 135.207 162.07 135.382 162.2C135.557 162.33 135.8 162.395 136.111 162.395ZM139.731 156.678H140.545V162.972H139.731V156.678ZM142.1 158.476H142.914V162.972H142.1V158.476ZM142.507 157.611C142.349 157.611 142.216 157.56 142.108 157.458C142.006 157.357 141.956 157.232 141.956 157.085C141.956 156.938 142.006 156.814 142.108 156.712C142.216 156.604 142.349 156.551 142.507 156.551C142.665 156.551 142.795 156.602 142.897 156.703C143.005 156.8 143.058 156.921 143.058 157.068C143.058 157.221 143.005 157.351 142.897 157.458C142.795 157.56 142.665 157.611 142.507 157.611ZM146.997 162.709C146.878 162.811 146.731 162.89 146.556 162.947C146.38 162.998 146.199 163.023 146.013 163.023C145.56 163.023 145.21 162.901 144.961 162.658C144.712 162.415 144.588 162.067 144.588 161.615V159.146H143.824V158.476H144.588V157.492H145.402V158.476H146.691V159.146H145.402V161.581C145.402 161.824 145.461 162.011 145.58 162.141C145.705 162.271 145.88 162.336 146.106 162.336C146.355 162.336 146.567 162.265 146.742 162.124L146.997 162.709ZM151.877 158.476L149.697 163.422C149.505 163.88 149.278 164.202 149.018 164.389C148.764 164.575 148.456 164.669 148.094 164.669C147.873 164.669 147.658 164.632 147.449 164.558C147.245 164.491 147.076 164.389 146.94 164.253L147.288 163.642C147.52 163.863 147.788 163.973 148.094 163.973C148.292 163.973 148.456 163.919 148.586 163.812C148.721 163.71 148.843 163.532 148.95 163.278L149.095 162.964L147.11 158.476H147.958L149.527 162.073L151.08 158.476H151.877Z" fill="white"/>
<path d="M43.5784 69.2111L48.8444 37.6147H74.7985C74.0463 42.7554 72.316 53.7891 71.4132 56.7982C61.6881 59.8074 50.7799 65.4496 43.5784 69.2111Z" fill="white"/>
<path d="M89.5227 59.4316C120.236 44.6044 123.752 27.8352 120.688 21.8169C119.56 42.505 81.5688 54.5417 54.1101 66.9545C26.6514 79.3674 24.0736 93.2848 28.9635 100.432C30.5626 83.8811 45.8901 80.4958 89.5227 59.4316Z" fill="#50984F"/>
<path d="M123.322 24.0737C133.854 44.3857 120.108 58.1916 81.1938 77.8627C47.6845 94.8015 57.0734 113.543 77.5987 113.971C78.0435 113.972 78.4897 113.973 78.937 113.973C78.486 113.981 78.0398 113.98 77.5987 113.971C49.9923 113.886 27.4531 111.083 33.423 95.1655C40.1945 77.1107 130.093 57.5508 123.322 24.0737Z" fill="white"/>
<path d="M110.157 62.4404L100.377 110.587H78.1841L83.4501 78.6147C91.2238 74.9787 107.147 66.0514 110.157 62.4404Z" fill="white"/>
<path d="M117.679 13.5413L114.67 22.1927L121.441 16.9266L128.212 22.5688L125.202 13.9174L133.854 9.02752L124.074 8.65138L121.441 0L118.808 8.27523H109.78L117.679 13.5413Z" fill="#D9A640"/>
</svg>
