<svg width="1440" height="361" viewBox="0 0 1440 361" fill="none" xmlns="http://www.w3.org/2000/svg">
<path opacity="0.5" d="M1431.01 97.8262H1548.6V99.8262H1433.9L1472.32 126.401H1558.1V128.401H1475.22L1518.1 158.059H1556.51V160.059H1520.99L1559.29 186.548H1561.26V187.915L1561.83 188.309L1561.26 189.131L1560.69 189.953L1558.66 188.548H1415.38L1458.33 224.535H1561.26V226.535H1460.72L1505.56 264.105H1566.01V266.105H1507.95L1558.46 308.424H1564.43V310.424H1394.37L1439.15 360.656H1558.1V362.656H1440.94L1498.42 427.134H1556.51V429.134H1500.2L1550.93 486.031L1550.18 486.697L1549.44 487.362L1497.52 429.134H1300.74L1351.6 509.906L1350.75 510.438L1349.9 510.972L1298.38 429.134H1106.13L1138 510.073L1137.07 510.439L1136.14 510.807L1103.98 429.134H906.188L916.474 510.314L915.481 510.439L914.489 510.565L904.171 429.134H710.007L699.63 512.146L697.646 511.898L707.991 429.134H512.975L481.146 512.379L480.212 512.021L479.278 511.665L510.834 429.134H319.215L267.384 512.55L266.534 512.022L265.685 511.494L316.86 429.134H119.964L52.0312 507.927L50.5156 506.62L117.322 429.134H-77.2031L-98.4307 447.877L-99.0928 447.127L-99.7549 446.378L-80.2256 429.134H-99.0928V427.134H-77.96L-4.93652 362.656H-107.007V360.656H-2.6709L54.2197 310.424H-103.841V308.424H56.4844L104.412 266.105H-50.6934L-106.386 310.208L-107.628 308.64L-53.916 266.105H-107.007V264.105H-51.3906L-3.94727 226.535H-107.007V224.535H-1.4209L44.0234 188.548H-77.8525L-106.457 207.378L-107.007 206.542L-107.557 205.707L-81.4902 188.548H-111.755V186.548H-78.4521L-38.2139 160.059H-126V158.059H-35.1758L9.87598 128.401H-114.92V126.401H12.9141L53.2832 99.8262H-111.755V97.8262H56.3223L165.45 25.9873L166.55 27.6572L59.959 97.8262H158.587L225.879 44.5381L226.5 45.3223L227.12 46.1064L161.809 97.8262H294.995L359.838 40.5723L360.5 41.3223L361.161 42.0723L298.018 97.8262H402.966L439.743 55.1689L440.5 55.8223L441.258 56.4756L405.606 97.8262H522.722L569.582 22.4102L571.281 23.4648L525.076 97.8262H637.51L664.465 27.3281L665.399 27.6855L666.333 28.043L639.651 97.8262H749.404L756.209 43.3896L758.193 43.6377L751.42 97.8262H862.189L855.926 48.3887L857.91 48.1367L864.206 97.8262H973.497L954.121 48.6289L955.982 47.8965L975.646 97.8262H1089.78L1053.92 40.8809L1055.61 39.8145L1092.14 97.8262H1202.16L1133.16 20.4365L1134.65 19.1064L1204.83 97.8262H1303.98L1236.86 41.5889L1238.14 40.0557L1307.1 97.8262H1427.49L1288.43 1.64453L1289.57 0L1431.01 97.8262ZM-74.9385 427.134H119.046L174.637 362.656H-1.91504L-74.9385 427.134ZM121.688 427.134H318.103L358.166 362.656H177.279L121.688 427.134ZM320.458 427.134H511.599L536.252 362.656H360.521L320.458 427.134ZM513.739 427.134H708.241L716.301 362.656H538.393L513.739 427.134ZM710.257 427.134H903.917L895.747 362.656H718.316L710.257 427.134ZM905.934 427.134H1103.19L1077.8 362.656H897.764L905.934 427.134ZM1105.34 427.134H1297.12L1256.52 362.656H1079.95L1105.34 427.134ZM1299.48 427.134H1495.74L1438.26 362.656H1258.88L1299.48 427.134ZM0.350586 360.656H176.361L219.67 310.424H57.2412L0.350586 360.656ZM179.003 360.656H359.409L390.622 310.424H222.312L179.003 360.656ZM361.765 360.656H537.017L556.223 310.424H392.977L361.765 360.656ZM539.157 360.656H716.551L722.83 310.424H558.363L539.157 360.656ZM718.566 360.656H895.493L889.128 310.424H724.846L718.566 360.656ZM897.51 360.656H1077.01L1057.23 310.424H891.145L897.51 360.656ZM1079.16 360.656H1255.26L1223.63 310.424H1059.38L1079.16 360.656ZM1257.62 360.656H1436.47L1391.69 310.424H1226L1257.62 360.656ZM59.5059 308.424H221.395L257.88 266.105H107.434L59.5059 308.424ZM224.036 308.424H391.864L418.159 266.105H260.521L224.036 308.424ZM394.22 308.424H556.987L573.168 266.105H420.515L394.22 308.424ZM559.129 308.424H723.08L728.37 266.105H575.31L559.129 308.424ZM725.096 308.424H888.875L883.513 266.105H730.386L725.096 308.424ZM890.892 308.424H1056.44L1039.77 266.105H885.529L890.892 308.424ZM1058.59 308.424H1222.37L1195.73 266.105H1041.92L1058.59 308.424ZM1224.74 308.424H1389.91L1352.18 266.105H1198.09L1224.74 308.424ZM1392.59 308.424H1555.35L1504.84 266.105H1354.86L1392.59 308.424ZM-48.168 264.105H106.677L149.227 226.535H-0.724609L-48.168 264.105ZM109.698 264.105H259.604L291.996 226.535H152.248L109.698 264.105ZM262.246 264.105H419.402L442.747 226.535H294.638L262.246 264.105ZM421.757 264.105H573.933L588.298 226.535H445.102L421.757 264.105ZM576.074 264.105H728.62L733.316 226.535H590.439L576.074 264.105ZM730.636 264.105H883.26L878.499 226.535H735.332L730.636 264.105ZM885.276 264.105H1038.98L1024.19 226.535H880.516L885.276 264.105ZM1041.13 264.105H1194.47L1170.81 226.535H1026.34L1041.13 264.105ZM1196.83 264.105H1350.4L1316.9 226.535H1173.18L1196.83 264.105ZM1353.08 264.105H1502.45L1457.61 226.535H1319.58L1353.08 264.105ZM1.80078 224.535H151.492L192.249 188.548H47.2451L1.80078 224.535ZM154.514 224.535H293.721L324.748 188.548H195.271L154.514 224.535ZM296.362 224.535H443.989L466.351 188.548H327.39L296.362 224.535ZM446.344 224.535H589.062L602.822 188.548H468.705L446.344 224.535ZM591.204 224.535H733.566L738.064 188.548H604.964L591.204 224.535ZM735.582 224.535H878.246L873.686 188.548H740.08L735.582 224.535ZM880.263 224.535H1023.4L1009.23 188.548H875.702L880.263 224.535ZM1025.55 224.535H1169.55L1146.9 188.548H1011.38L1025.55 224.535ZM1171.92 224.535H1315.12L1283.04 188.548H1149.26L1171.92 224.535ZM1317.8 224.535H1455.22L1412.27 188.548H1285.71L1317.8 224.535ZM-74.8145 186.548H46.5498L80 160.059H-34.5762L-74.8145 186.548ZM49.7715 186.548H194.515L224.515 160.059H83.2217L49.7715 186.548ZM197.536 186.548H326.473L349.311 160.059H227.536L197.536 186.548ZM329.113 186.548H467.593L484.052 160.059H351.951L329.113 186.548ZM469.947 186.548H603.587L613.715 160.059H486.407L469.947 186.548ZM605.729 186.548H738.314L741.626 160.059H615.856L605.729 186.548ZM740.33 186.548H873.433L870.076 160.059H743.642L740.33 186.548ZM875.449 186.548H1008.44L998.006 160.059H872.093L875.449 186.548ZM1010.59 186.548H1145.64L1128.96 160.059H1000.16L1010.59 186.548ZM1148 186.548H1281.25L1257.64 160.059H1131.32L1148 186.548ZM1283.93 186.548H1409.88L1378.26 160.059H1260.32L1283.93 186.548ZM1412.99 186.548H1555.77L1517.47 160.059H1381.38L1412.99 186.548ZM-31.5381 158.059H82.5254L119.977 128.401H13.5137L-31.5381 158.059ZM85.748 158.059H226.78L260.368 128.401H123.199L85.748 158.059ZM229.802 158.059H351.035L376.604 128.401H263.39L229.802 158.059ZM353.676 158.059H485.295L503.723 128.401H379.245L353.676 158.059ZM487.649 158.059H614.479L625.819 128.401H506.077L487.649 158.059ZM616.621 158.059H741.876L745.583 128.401H627.961L616.621 158.059ZM743.892 158.059H869.822L866.064 128.401H747.599L743.892 158.059ZM871.839 158.059H997.219L985.539 128.401H868.081L871.839 158.059ZM999.368 158.059H1127.7L1109.03 128.401H987.688L999.368 158.059ZM1130.06 158.059H1255.85L1229.41 128.401H1111.39L1130.06 158.059ZM1258.53 158.059H1375.87L1340.48 128.401H1232.09L1258.53 158.059ZM1378.99 158.059H1514.58L1471.7 128.401H1343.59L1378.99 158.059ZM56.9209 99.8262L16.5518 126.401H122.502L156.062 99.8262H56.9209ZM159.283 99.8262L125.725 126.401H262.633L292.73 99.8262H159.283ZM295.753 99.8262L265.655 126.401H378.329L401.241 99.8262H295.753ZM403.882 99.8262L380.97 126.401H504.966L521.479 99.8262H403.882ZM523.833 99.8262L507.32 126.401H626.584L636.745 99.8262H523.833ZM638.887 99.8262L628.726 126.401H745.833L749.154 99.8262H638.887ZM751.17 99.8262L747.849 126.401H865.811L862.443 99.8262H751.17ZM864.46 99.8262L867.827 126.401H984.751L974.284 99.8262H864.46ZM976.435 99.8262L986.9 126.401H1107.77L1091.03 99.8262H976.435ZM1093.4 99.8262L1110.13 126.401H1227.63L1203.94 99.8262H1093.4ZM1206.62 99.8262L1230.31 126.401H1338.09L1306.37 99.8262H1206.62ZM1309.48 99.8262L1341.2 126.401H1468.81L1430.39 99.8262H1309.48Z" fill="url(#paint0_linear_98_694)"/>
<defs>
<linearGradient id="paint0_linear_98_694" x1="720.006" y1="63.5855" x2="720.006" y2="425.537" gradientUnits="userSpaceOnUse">
<stop stop-color="#1F3158"/>
<stop offset="1" stop-color="#97AAC6"/>
</linearGradient>
</defs>
</svg>
